# Blender v2.62 (sub 0) OBJ File: ''
# www.blender.org
mtllib comlArmSimplified.mtl
o Mesh.001_Mesh_foo.000
v 0.740978 -0.411636 -0.616968
v -0.004644 -0.576746 -0.968833
v 0.290307 -0.083464 -1.070532
v -0.018070 1.097151 0.215983
v 0.587224 0.526846 0.619476
v 0.523590 0.935191 -0.132838
v -0.030162 0.348870 0.865298
v -0.535702 0.263438 0.650276
v -0.324619 -0.948166 0.353258
v 0.183406 -1.035148 0.303623
v 0.667615 -0.576840 0.289054
v -0.098369 -1.008385 -0.478456
v 0.241628 -1.001826 -0.383278
v -0.721585 -0.748569 0.063136
v -0.798797 -0.006367 -0.586215
v -0.624410 -0.547980 -0.699240
v 0.043693 1.060394 -0.316520
v 0.134199 0.703673 -0.868478
v -0.539998 0.781067 -0.565139
v 0.699149 0.397570 -0.658246
v 0.828242 0.439627 0.039688
v -0.814576 0.594808 -0.015954
v -0.425517 0.764745 0.568656
v -0.265571 0.150670 -1.071520
v 0.784441 -0.620767 -0.197458
vn 0.461252 -0.435208 -0.773201
vn 0.483358 0.785884 0.385682
vn -0.335540 -0.279027 0.899754
vn 0.271880 -0.257772 0.927165
vn 0.032059 -0.998440 -0.045718
vn -0.945394 -0.264714 -0.190152
vn -0.155395 0.817854 -0.554046
vn 0.709633 0.000742 -0.704571
vn 0.982030 0.041370 -0.184134
vn -0.836789 0.262183 0.480672
vn -0.691049 0.245319 -0.679905
vn -0.537019 0.843388 0.017544
vn 0.265079 0.963563 -0.035766
vn -0.564560 -0.777675 -0.276575
vn 0.424182 -0.283571 0.860033
vn 0.614280 -0.678948 -0.402106
vn 0.190330 -0.754667 -0.627895
vn -0.928989 -0.042662 0.367642
vn -0.662658 -0.057536 -0.746709
vn -0.420072 -0.906185 -0.048661
vn 0.114005 0.646471 0.754373
vn -0.166219 -0.985742 0.026155
vn -0.555915 0.820793 0.131370
vn 0.572533 -0.819835 0.008757
vn -0.889766 0.301600 -0.342570
vn 0.473179 0.305911 -0.826148
vn -0.413760 0.234179 0.879752
vn -0.302383 0.513454 -0.803075
vn 0.673314 -0.704205 0.225265
vn 0.383990 0.802911 -0.455944
vn -0.654934 -0.285613 0.699633
vn 0.993684 -0.016214 -0.111033
vn 0.972378 0.000948 0.233411
vn 0.786850 0.567858 0.241670
vn 0.114696 0.268273 -0.956491
vn -0.066885 -0.162951 -0.984364
vn 0.864557 0.466045 -0.187996
vn 0.115726 0.652609 0.748805
vn -0.996880 -0.066502 0.042524
vn 0.909118 -0.126320 0.396923
vn 0.026888 -0.372341 0.927706
vn -0.391160 0.913910 -0.108453
vn 0.441577 -0.627525 -0.641266
vn -0.318621 -0.680480 -0.659869
vn -0.394886 -0.265795 -0.879442
vn 0.548948 0.668986 -0.501112
usemtl 
s off
f 1//1 2//1 3//1
f 4//2 5//2 6//2
f 7//3 8//3 9//3
f 10//4 11//4 5//4
f 10//5 12//5 13//5
f 14//6 15//6 16//6
f 17//7 18//7 19//7
f 20//8 1//8 3//8
f 21//9 1//9 20//9
f 22//10 8//10 23//10
f 19//11 24//11 15//11
f 19//12 22//12 4//12
f 17//13 4//13 6//13
f 16//14 12//14 14//14
f 10//15 5//15 7//15
f 13//16 1//16 25//16
f 13//17 12//17 2//17
f 22//18 14//18 8//18
f 24//19 16//19 15//19
f 9//20 14//20 12//20
f 5//21 23//21 7//21
f 9//22 12//22 10//22
f 23//23 4//23 22//23
f 13//24 25//24 10//24
f 15//25 22//25 19//25
f 3//26 18//26 20//26
f 23//27 8//27 7//27
f 19//28 18//28 24//28
f 11//29 10//29 25//29
f 18//30 17//30 6//30
f 9//31 8//31 14//31
f 1//32 21//32 25//32
f 25//33 5//33 11//33
f 5//34 21//34 6//34
f 24//35 18//35 3//35
f 3//36 2//36 24//36
f 20//37 6//37 21//37
f 4//38 23//38 5//38
f 15//39 14//39 22//39
f 21//40 5//40 25//40
f 10//41 7//41 9//41
f 17//42 19//42 4//42
f 1//43 13//43 2//43
f 16//44 2//44 12//44
f 2//45 16//45 24//45
f 20//46 18//46 6//46
