# Blender v2.62 (sub 0) OBJ File: ''
# www.blender.org
mtllib comlLegSimplified.mtl
o Mesh_foo.003
v -0.058484 -0.241078 0.606210
v -0.319350 -0.030395 0.584903
v 0.503642 0.055991 0.420844
v 0.234999 -0.112207 0.608660
v 0.076318 0.140377 0.645481
v -0.247897 -0.404539 0.435194
v 0.169392 -0.434283 0.473697
v -0.510071 -0.293597 0.282213
v -0.535798 0.045695 0.345283
v -0.475029 -0.074071 -0.032075
v 0.628394 -0.131388 0.105614
v 0.473171 -0.323282 0.344648
v -0.235561 -0.032467 -0.153049
vn -0.152272 -0.802204 -0.577306
vn 0.228510 0.873907 -0.429033
vn 0.881610 -0.160033 0.444020
vn -0.394702 -0.405321 0.824576
vn 0.485334 0.180181 0.855562
vn -0.069529 -0.186539 0.979984
vn -0.034097 0.058684 0.997694
vn -0.058832 0.980177 -0.189185
vn 0.642487 -0.200220 0.739677
vn -0.045086 -0.843846 -0.534688
vn -0.115626 -0.650955 0.750259
vn -0.757614 -0.174364 0.628982
vn 0.480560 -0.420397 0.769628
vn -0.988421 -0.048202 -0.143875
vn 0.172734 -0.410395 0.895399
vn 0.067309 0.969391 -0.236117
vn -0.395600 0.709857 0.582755
vn -0.581972 -0.395469 0.710573
vn 0.084623 -0.803116 -0.589782
vn -0.322235 0.886110 -0.333127
vn 0.060032 -0.822253 -0.565947
vn -0.010896 -0.844979 -0.534688
usemtl 
s off
f 13//1 8//1 10//1
f 13//2 3//2 11//2
f 3//3 12//3 11//3
f 1//4 2//4 6//4
f 3//5 5//5 4//5
f 2//6 4//6 5//6
f 2//7 1//7 4//7
f 9//8 5//8 13//8
f 12//9 3//9 4//9
f 6//10 8//10 13//10
f 7//11 1//11 6//11
f 2//12 9//12 8//12
f 12//13 4//13 7//13
f 9//14 10//14 8//14
f 1//15 7//15 4//15
f 13//16 5//16 3//16
f 9//17 2//17 5//17
f 6//18 2//18 8//18
f 12//19 13//19 11//19
f 9//20 13//20 10//20
f 7//21 13//21 12//21
f 6//22 13//22 7//22
