# Blender v2.62 (sub 0) OBJ File: ''
# www.blender.org
mtllib comrArmSimplified.mtl
o Mesh.001_foo.004
v 0.175057 -1.100151 -0.122682
v 0.728703 -0.692465 -0.347055
v 0.635330 -0.632461 0.351698
v -0.607574 0.849323 0.055072
v 0.412544 0.565104 -0.823712
v -0.744043 -0.380249 -0.571212
v -0.554201 0.679809 0.575361
v 0.066972 -0.588190 -0.945893
v -0.246452 -0.581008 -0.921958
v -0.452852 0.136261 -0.978721
v -0.037287 0.536830 -0.978051
v 0.777763 0.188238 -0.596021
v 0.642802 0.833330 -0.090548
v 0.762347 0.377307 0.488360
v 0.244779 0.972080 -0.467788
v 0.221928 0.065992 -1.082166
v -0.318985 0.945635 -0.502228
v -0.108022 0.110441 0.831020
v 0.264019 0.747166 0.689453
v -0.382294 -0.963560 -0.362007
v -0.037707 -1.053364 0.332170
v -0.762364 -0.642245 0.234775
v 0.545546 -0.320622 -0.852762
v 0.057979 1.112788 0.073004
v -0.821173 0.402214 -0.379642
vn -0.596751 -0.110779 0.794743
vn -0.234154 -0.972153 -0.009533
vn 0.624826 -0.766356 0.149303
vn 0.631414 0.152556 -0.760291
vn 0.634041 0.640419 -0.433422
vn -0.059336 -0.851156 -0.521549
vn 0.765341 0.488494 -0.419077
vn 0.325345 -0.266082 -0.907387
vn -0.143561 0.829393 0.539905
vn -0.355922 0.877177 0.322303
vn 0.979384 -0.142564 0.143115
vn -0.335584 -0.388180 0.858312
vn 0.877451 -0.175117 -0.446557
vn 0.469533 -0.621545 -0.627073
vn 0.974372 0.223536 -0.025123
vn -0.482913 0.502192 -0.717355
vn 0.644574 0.088972 -0.759348
vn 0.208112 -0.374695 0.903489
vn -0.155937 0.300333 0.941001
vn 0.645153 0.659304 0.386129
vn -0.648494 0.462984 -0.604236
vn 0.355109 -0.772210 -0.526867
vn -0.029306 0.964849 -0.261165
vn -0.079049 -0.185314 -0.979495
vn 0.368629 -0.008722 0.929536
vn -0.621904 -0.237999 -0.746051
vn -0.995039 -0.085724 -0.050484
vn 0.406187 -0.172541 0.897353
vn 0.195700 0.690058 -0.696794
vn -0.965659 0.089181 0.244028
vn 0.036264 -0.829233 -0.557725
vn -0.840996 0.049019 -0.538816
vn -0.502732 -0.853164 0.139182
vn 0.998530 -0.049186 0.022772
vn -0.135504 0.142218 -0.980516
vn -0.798001 -0.567568 -0.202634
vn -0.613573 -0.574726 -0.541496
vn -0.736295 0.618531 -0.274386
vn -0.367221 0.929666 -0.029497
vn 0.480083 0.815505 0.323222
vn -0.162995 -0.124360 -0.978758
vn 0.004088 0.759692 -0.650271
vn -0.944548 0.271140 0.185236
vn 0.283661 0.353295 -0.891470
vn 0.496561 -0.808651 0.315453
vn 0.407277 0.908283 -0.095643
usemtl 
s off
f 22//1 18//1 7//1
f 1//2 21//2 20//2
f 3//3 1//3 2//3
f 5//4 12//4 16//4
f 15//5 13//5 5//5
f 8//6 1//6 9//6
f 12//7 5//7 13//7
f 16//8 23//8 8//8
f 7//9 19//9 24//9
f 4//10 7//10 24//10
f 2//11 14//11 3//11
f 22//12 21//12 18//12
f 23//13 12//13 2//13
f 2//14 8//14 23//14
f 12//15 13//15 14//15
f 11//16 10//16 17//16
f 23//17 16//17 12//17
f 18//18 21//18 3//18
f 19//19 7//19 18//19
f 14//20 13//20 19//20
f 10//21 25//21 17//21
f 2//22 1//22 8//22
f 24//23 15//23 17//23
f 16//24 8//24 9//24
f 14//25 19//25 18//25
f 9//26 6//26 10//26
f 6//27 22//27 25//27
f 18//28 3//28 14//28
f 5//29 11//29 15//29
f 22//30 7//30 25//30
f 9//31 1//31 20//31
f 6//32 25//32 10//32
f 21//33 22//33 20//33
f 12//34 14//34 2//34
f 10//35 11//35 16//35
f 6//36 20//36 22//36
f 6//37 9//37 20//37
f 17//38 25//38 4//38
f 4//39 24//39 17//39
f 24//40 19//40 13//40
f 16//41 9//41 10//41
f 15//42 11//42 17//42
f 7//43 4//43 25//43
f 16//44 11//44 5//44
f 21//45 1//45 3//45
f 15//46 24//46 13//46
