# Blender v2.62 (sub 0) OBJ File: ''
# www.blender.org
mtllib comrLegSimplified.mtl
o Mesh_foo.005
v -0.196924 -0.127912 0.612197
v 0.305085 0.239941 0.534773
v -0.489860 0.103687 0.009359
v -0.533111 0.246747 0.220533
v -0.122714 0.424581 0.474983
v -0.425214 0.347224 0.376806
v 0.265603 0.414479 0.433382
v 0.147229 -0.122839 0.629516
v 0.567294 -0.051218 0.341237
v 0.541110 0.251087 0.280820
v 0.607616 0.173607 0.103201
v -0.151303 0.202534 0.624177
v -0.505588 -0.056720 0.423980
v -0.255851 0.035537 -0.149750
vn 0.945783 0.140449 0.292863
vn -0.157867 0.802211 -0.575791
vn -0.381715 0.548835 0.743689
vn 0.022380 -0.977398 -0.210220
vn -0.513500 0.039817 0.857165
vn -0.102081 -0.974239 -0.201094
vn 0.175251 0.176686 0.968540
vn 0.569374 -0.033233 0.821407
vn -0.466019 -0.819081 -0.334562
vn 0.034010 0.823851 -0.565785
vn 0.393558 0.887481 -0.239771
vn -0.040674 0.854039 -0.518617
vn -0.592439 0.208747 0.778101
vn -0.036744 0.836860 -0.546183
vn 0.713947 0.196173 0.672157
vn -0.863418 0.224553 0.451758
vn 0.298869 -0.718523 -0.628015
vn 0.123129 0.519162 0.845760
vn 0.025047 -0.977051 -0.211529
vn 0.626574 0.492581 0.603961
vn -0.043030 0.853615 -0.519124
vn -0.049807 -0.029318 0.998328
vn 0.103293 0.545527 0.831704
vn -0.983277 -0.154170 -0.096944
usemtl 
s off
f 10//1 9//1 11//1
f 3//2 4//2 14//2
f 12//3 5//3 6//3
f 9//4 8//4 14//4
f 13//5 1//5 12//5
f 1//6 13//6 14//6
f 12//7 8//7 2//7
f 9//8 2//8 8//8
f 13//9 3//9 14//9
f 7//10 11//10 14//10
f 7//11 10//11 11//11
f 7//12 14//12 6//12
f 13//13 12//13 6//13
f 7//14 6//14 5//14
f 10//15 2//15 9//15
f 6//16 4//16 13//16
f 11//17 9//17 14//17
f 12//18 2//18 7//18
f 1//19 14//19 8//19
f 7//20 2//20 10//20
f 14//21 4//21 6//21
f 12//22 1//22 8//22
f 12//23 7//23 5//23
f 13//24 4//24 3//24
