# Blender v2.73 (sub 0) OBJ File: ''
# www.blender.org
mtllib larm_simplified.mtl
o foo.006
v 0.471864 0.637045 0.596030
v 0.625106 0.211423 0.439950
v 0.034593 0.830119 0.419576
v 0.412882 0.328039 0.969182
v -0.093839 0.358289 1.107049
v 0.243123 0.097907 -0.004979
v -0.340701 -0.045072 0.264209
v -0.239482 0.141507 0.036961
v -0.401176 0.598014 0.301043
v -0.107242 0.530835 0.046378
v 0.098829 0.722281 0.862508
v 0.482362 -0.044217 0.707594
v -0.009042 0.001540 1.045110
v 0.344723 0.530876 0.126359
vn 0.845700 0.423500 -0.324700
vn 0.168700 0.249700 -0.953500
vn -0.893200 -0.058500 -0.445800
vn -0.878500 -0.276500 0.389600
vn -0.279900 0.798100 -0.533600
vn -0.608100 0.225000 -0.761300
vn -0.509000 0.816500 0.272600
vn 0.479200 -0.443000 0.757700
vn 0.337200 0.924800 0.176200
vn 0.114500 0.753300 -0.647600
vn -0.643200 0.631400 0.433100
vn -0.040200 -0.996300 0.076500
vn -0.939200 -0.107000 0.326300
vn 0.755900 0.021100 -0.654300
vn 0.922100 0.213700 0.322700
vn 0.915200 -0.103000 0.389700
vn 0.487000 0.814300 -0.315900
vn 0.127600 -0.963600 -0.235000
vn -0.124300 -0.739000 -0.662100
vn 0.255100 -0.106200 0.961100
vn 0.615200 -0.707500 -0.347700
vn -0.081800 0.051900 -0.995300
vn 0.260100 0.439800 0.859600
vn 0.552100 0.597200 0.581800
usemtl None
s off
f 1//1 2//1 14//1
f 6//2 10//2 14//2
f 7//3 9//3 8//3
f 7//4 13//4 5//4
f 10//5 9//5 3//5
f 10//6 8//6 9//6
f 3//7 9//7 11//7
f 12//8 4//8 13//8
f 3//9 11//9 1//9
f 3//10 14//10 10//10
f 9//11 5//11 11//11
f 13//12 7//12 12//12
f 9//13 7//13 5//13
f 2//14 6//14 14//14
f 4//15 2//15 1//15
f 12//16 2//16 4//16
f 1//17 14//17 3//17
f 7//18 6//18 12//18
f 7//19 8//19 6//19
f 5//20 13//20 4//20
f 2//21 12//21 6//21
f 10//22 6//22 8//22
f 4//23 11//23 5//23
f 11//24 4//24 1//24
