# Blender v2.73 (sub 0) OBJ File: ''
# www.blender.org
mtllib rarm_simplified.mtl
o foo.006
v -0.195895 -0.544572 0.097368
v -0.028540 -0.099358 1.069956
v 0.322578 -0.694041 0.769198
v 0.201411 -0.325861 -0.023260
v 0.515026 -0.252203 0.198149
v -0.452998 -0.361069 0.288199
v 0.541741 -0.523217 0.496222
v -0.231697 -0.712460 0.342829
v 0.234123 0.084796 0.849277
v 0.294664 0.038096 0.188468
v -0.043664 0.079680 0.247252
v 0.293758 -0.749461 0.436512
v 0.256153 -0.641849 0.160745
v 0.041791 -0.550246 1.023645
v 0.051716 -0.825769 0.570896
v 0.093071 -0.106306 -0.014401
v -0.134264 -0.715171 0.754239
v -0.177901 -0.276580 0.994004
v -0.397784 -0.061958 0.232150
v -0.257342 -0.204064 0.041372
v 0.373262 -0.264824 1.006375
v 0.523068 -0.402420 0.799486
v 0.587669 -0.100986 0.624356
vn -0.716200 -0.522900 -0.462100
vn -0.025200 -0.907400 -0.419500
vn 0.507800 0.283400 -0.813500
vn 0.111500 0.992000 -0.059900
vn 0.446500 -0.472600 0.759800
vn 0.751500 -0.453200 -0.479400
vn 0.004600 -0.854200 0.519900
vn 0.676500 -0.650200 -0.346000
vn -0.293000 0.650800 -0.700500
vn -0.259600 0.717900 -0.645900
vn -0.000500 0.814900 -0.579500
vn 0.330400 0.493100 0.804800
vn 0.636200 0.512400 0.576800
vn 0.516500 0.366300 -0.774000
vn -0.186700 -0.192100 -0.963400
vn 0.757400 0.563900 -0.329200
vn 0.084700 -0.924300 -0.372200
vn -0.436000 -0.894600 0.097400
vn -0.445600 0.873000 0.198200
vn -0.782800 0.502300 0.367400
vn -0.371000 0.905900 0.204000
vn 0.034300 -0.853400 0.520100
vn 0.454400 0.890500 -0.021300
vn -0.617300 -0.423800 0.662800
vn -0.306900 -0.144500 0.940700
vn -0.843200 -0.500500 0.196400
vn -0.878200 -0.293700 0.377500
vn -0.915600 0.230700 0.329300
vn 0.663700 -0.745000 0.066600
vn 0.987300 -0.063100 -0.145900
vn -0.682400 -0.236900 -0.691600
vn -0.095300 -0.815100 -0.571400
vn -0.148100 -0.033200 -0.988400
vn 0.552000 -0.452300 0.700500
vn 0.841300 0.125200 0.525900
vn 0.013400 -0.501400 -0.865100
vn 0.359800 -0.924900 0.122900
vn 0.982800 -0.142500 0.117300
vn 0.595200 -0.324900 -0.735000
vn -0.793200 0.032500 -0.608100
vn 0.779400 -0.564100 0.272700
vn 0.122500 -0.082500 0.989000
usemtl None
s off
f 6//1 1//1 8//1
f 8//2 13//2 15//2
f 4//3 16//3 5//3
f 9//4 10//4 11//4
f 14//5 3//5 21//5
f 7//6 13//6 5//6
f 17//7 15//7 14//7
f 13//8 7//8 12//8
f 19//9 16//9 20//9
f 19//10 11//10 16//10
f 16//11 11//11 10//11
f 21//12 9//12 2//12
f 21//13 23//13 9//13
f 5//14 16//14 10//14
f 1//15 20//15 4//15
f 10//16 23//16 5//16
f 12//17 15//17 13//17
f 8//18 15//18 17//18
f 2//19 9//19 11//19
f 2//20 19//20 18//20
f 2//21 11//21 19//21
f 3//22 14//22 15//22
f 9//23 23//23 10//23
f 14//24 18//24 17//24
f 18//25 14//25 2//25
f 6//26 8//26 17//26
f 6//27 17//27 18//27
f 6//28 18//28 19//28
f 12//29 7//29 3//29
f 5//30 23//30 7//30
f 6//31 20//31 1//31
f 13//32 8//32 1//32
f 16//33 4//33 20//33
f 22//34 21//34 3//34
f 23//35 21//35 22//35
f 13//36 1//36 4//36
f 3//37 15//37 12//37
f 22//38 7//38 23//38
f 4//39 5//39 13//39
f 20//40 6//40 19//40
f 22//41 3//41 7//41
f 2//42 14//42 21//42
