# Blender v2.75 (sub 0) OBJ File: ''
# www.blender.org
mtllib lfleg_com.mtl
o foo.000_foo.006
v 0.231669 0.793249 -0.617095
v 0.083531 1.187798 -0.216225
v 0.088955 0.971339 0.297100
v 0.227165 1.097983 -0.013727
v 0.079910 0.765128 -0.745295
v 0.092005 -0.010952 -0.790816
v 0.185210 0.516723 0.335822
v 0.239319 0.294494 -0.764480
vn -0.973800 -0.213000 -0.079500
vn 0.358500 0.728100 -0.584200
vn 0.601500 0.234900 -0.763600
vn 0.854600 0.221000 0.470000
vn 0.028800 0.921200 0.388100
vn 0.888300 -0.439800 0.132500
vn 0.999900 0.015400 -0.000300
vn 0.997700 -0.037900 0.056700
vn 0.764500 0.577700 -0.286100
vn 0.055200 0.059300 -0.996700
vn -0.992100 -0.059800 0.110100
vn -0.999700 -0.016800 0.020200
usemtl None
s off
f 2//1 7//1 3//1
f 1//2 5//2 2//2
f 5//3 1//3 8//3
f 7//4 4//4 3//4
f 3//5 4//5 2//5
f 6//6 8//6 7//6
f 4//7 8//7 1//7
f 4//8 7//8 8//8
f 2//9 4//9 1//9
f 8//10 6//10 5//10
f 6//11 7//11 2//11
f 5//12 6//12 2//12
