# Blender v2.75 (sub 0) OBJ File: ''
# www.blender.org
mtllib lhleg_com_reduced.mtl
o foo.003
v -0.667805 -0.125387 0.840169
v 0.255981 -0.222005 0.896197
v 0.382562 -0.087532 0.698970
v -0.822089 -0.078325 0.295268
v -0.040539 -0.080619 1.156356
v -0.199913 -0.235679 1.062138
v 0.197948 -0.230601 0.454056
v -0.682494 -0.178892 -0.058575
vn 0.670100 -0.738700 -0.073600
vn -0.131900 0.983700 0.122300
vn 0.009700 0.999900 -0.006100
vn -0.443500 -0.086200 0.892100
vn 0.087900 0.966800 -0.240100
vn 0.267000 -0.685800 0.677000
vn 0.035400 -0.999300 0.014800
vn 0.705400 0.286700 0.648200
vn -0.256600 -0.964600 0.061600
vn -0.478900 -0.875800 0.060000
vn -0.039000 -0.998700 -0.033800
vn 0.427900 0.602000 -0.674200
usemtl None
s off
f 2//1 7//1 3//1
f 1//2 5//2 4//2
f 5//3 3//3 4//3
f 1//4 6//4 5//4
f 3//5 8//5 4//5
f 6//6 2//6 5//6
f 2//7 6//7 7//7
f 5//8 2//8 3//8
f 1//9 8//9 6//9
f 1//10 4//10 8//10
f 6//11 8//11 7//11
f 3//12 7//12 8//12
