# Blender v2.75 (sub 0) OBJ File: ''
# www.blender.org
mtllib rfleg_com_reduced.mtl
o foo.004
v 0.627733 0.222542 0.816190
v 0.220970 0.223761 1.089801
v -0.247562 0.240797 0.916839
v 0.820515 0.094374 0.009925
v 0.692110 0.084104 0.869191
v -0.043397 0.087978 1.177184
v -0.389669 0.119106 0.550690
v 0.740932 0.237935 0.203960
vn -0.195700 0.771000 0.606000
vn -0.825400 -0.355600 0.438500
vn 0.024500 0.999200 0.032000
vn 0.484400 0.500100 0.717900
vn -0.027600 -0.999500 -0.016100
vn -0.021200 -0.999100 -0.037900
vn -0.102700 0.994700 0.006000
vn -0.015800 0.950700 -0.309800
vn 0.380900 -0.155000 0.911500
vn 0.877200 0.460200 0.136600
vn 0.943400 0.277800 0.181400
vn -0.272200 0.716800 -0.642000
usemtl None
s off
f 6//1 2//1 3//1
f 6//2 3//2 7//2
f 3//3 2//3 1//3
f 5//4 1//4 2//4
f 5//5 7//5 4//5
f 5//6 6//6 7//6
f 1//7 8//7 7//7
f 1//8 7//8 3//8
f 2//9 6//9 5//9
f 4//10 1//10 5//10
f 1//11 4//11 8//11
f 7//12 8//12 4//12
