# Blender v2.75 (sub 0) OBJ File: ''
# www.blender.org
mtllib rhleg_com_reduced.mtl
o foo.005
v -0.231329 0.088280 1.142282
v 0.356603 0.088115 0.857090
v -0.738777 0.247778 0.187831
v -0.684827 0.076875 0.807795
v 0.299865 0.235694 0.567884
v -0.434383 0.228578 0.968221
v 0.024067 0.224775 1.067542
v -0.754330 0.077116 0.009270
vn 0.373200 -0.794700 -0.478700
vn 0.009800 -0.999700 0.020800
vn -0.996200 0.000100 0.086700
vn 0.415100 -0.308100 0.856000
vn 0.256600 0.687500 -0.679400
vn 0.003100 0.999700 0.023400
vn 0.003200 0.999700 0.023600
vn 0.520600 0.797500 0.304800
vn 0.010900 -0.999900 -0.001200
vn -0.590500 0.133000 0.796000
vn -0.616300 0.743800 0.258700
vn -0.150600 0.676500 0.720900
usemtl None
s off
f 5//1 2//1 8//1
f 1//2 4//2 2//2
f 4//3 3//3 8//3
f 1//4 2//4 7//4
f 5//5 8//5 3//5
f 5//6 3//6 6//6
f 5//7 6//7 7//7
f 5//8 7//8 2//8
f 8//9 2//9 4//9
f 1//10 6//10 4//10
f 4//11 6//11 3//11
f 1//12 7//12 6//12
