solid Exported from Blender-2.76 (sub 0)
facet normal 0.000000 0.000000 -1.000000
outer loop
vertex -0.150000 0.150000 -0.499734
vertex 0.150000 0.150000 -0.499734
vertex -0.150000 -0.150000 -0.499734
endloop
endfacet
facet normal 0.000000 0.000000 -1.000000
outer loop
vertex 0.150000 0.150000 -0.499734
vertex 0.150000 -0.150000 -0.499734
vertex -0.150000 -0.150000 -0.499734
endloop
endfacet
facet normal 0.000000 0.000000 1.000000
outer loop
vertex -0.150000 -0.150000 0.100267
vertex 0.150000 -0.150000 0.100267
vertex 0.150000 0.150000 0.100267
endloop
endfacet
facet normal 0.000000 -1.000000 -0.000000
outer loop
vertex -0.150000 -0.150000 -0.499734
vertex 0.150000 -0.150000 -0.499734
vertex 0.150000 -0.150000 0.100267
endloop
endfacet
facet normal 0.000000 1.000000 -0.000000
outer loop
vertex 0.150000 0.150000 -0.499734
vertex -0.150000 0.150000 -0.499734
vertex -0.150000 0.150000 0.100267
endloop
endfacet
facet normal 1.000000 -0.000000 0.000000
outer loop
vertex 0.150000 -0.150000 -0.499734
vertex 0.150000 0.150000 -0.499734
vertex 0.150000 -0.150000 0.100267
endloop
endfacet
facet normal -1.000000 0.000000 -0.000000
outer loop
vertex -0.150000 0.150000 -0.499734
vertex -0.150000 -0.150000 -0.499734
vertex -0.150000 -0.150000 0.100267
endloop
endfacet
facet normal 0.000000 1.000000 -0.000000
outer loop
vertex 0.150000 0.150000 0.100267
vertex 0.150000 0.150000 -0.499734
vertex -0.150000 0.150000 0.100267
endloop
endfacet
facet normal 0.000000 0.000000 1.000000
outer loop
vertex -0.150000 0.150000 0.100267
vertex -0.150000 -0.150000 0.100267
vertex 0.150000 0.150000 0.100267
endloop
endfacet
facet normal -1.000000 0.000000 0.000000
outer loop
vertex -0.150000 0.150000 0.100267
vertex -0.150000 0.150000 -0.499734
vertex -0.150000 -0.150000 0.100267
endloop
endfacet
facet normal -0.000001 -1.000000 0.000000
outer loop
vertex -0.150000 -0.150000 0.100267
vertex -0.150000 -0.150000 -0.499734
vertex 0.150000 -0.150000 0.100267
endloop
endfacet
facet normal 1.000000 -0.000000 0.000000
outer loop
vertex 0.150000 0.150000 -0.499734
vertex 0.150000 0.150000 0.100267
vertex 0.150000 -0.150000 0.100267
endloop
endfacet
endsolid Exported from Blender-2.76 (sub 0)
