# Blender v2.75 (sub 0) OBJ File: ''
# www.blender.org
mtllib LA_com_reduced.mtl
o foo.001
v 0.599564 0.553449 -0.089752
v 0.084022 0.895420 -0.242792
v 0.558294 -0.552429 0.151512
v 0.482862 -0.679485 -0.322344
v -0.565017 0.496511 0.269383
v -0.117319 0.852425 0.334466
v -0.427133 -0.394409 -0.660215
v -0.590283 -0.550811 0.061432
v 0.002069 -0.844197 0.282508
v -0.213670 0.303993 0.613713
v 0.371525 0.731515 0.315288
v 0.334532 0.561133 -0.596643
v 0.193083 -0.659266 -0.593380
v -0.190695 -0.740822 -0.469073
v -0.117290 -0.936917 0.005245
v 0.608194 -0.072761 -0.554597
v -0.115126 0.658436 -0.619971
v -0.535954 0.614566 -0.197227
v 0.067978 0.273987 -0.883749
v 0.612909 0.200709 0.240226
v -0.414535 0.420725 -0.630481
v 0.186303 0.303811 0.635210
v -0.285433 0.044331 -0.854643
v 0.201052 -0.102365 -0.876276
v -0.062624 -0.420557 -0.798387
v -0.635974 0.073633 -0.443117
vn 0.587500 0.753300 -0.295700
vn -0.477300 0.463900 0.746300
vn -0.467700 -0.325000 0.822000
vn 0.561800 0.826000 -0.046800
vn -0.784300 -0.606700 -0.129500
vn -0.624700 -0.721900 -0.297700
vn 0.967800 -0.234800 -0.091100
vn 0.172400 0.611800 -0.772000
vn 0.999600 0.024400 -0.014300
vn 0.997000 -0.074600 0.019800
vn 0.690900 0.216700 0.689700
vn 0.655400 -0.135100 0.743100
vn 0.375600 -0.326700 0.867300
vn 0.609900 0.200400 -0.766700
vn 0.597300 0.206500 -0.775000
vn 0.487100 -0.859900 0.153000
vn 0.873700 0.349500 0.338300
vn -0.081900 -0.698400 -0.711000
vn 0.441100 -0.890900 0.108000
vn 0.592000 -0.371700 -0.715100
vn 0.614500 -0.389600 -0.686000
vn -0.857100 0.336000 -0.390500
vn -0.540400 0.701200 -0.465100
vn 0.199400 0.778900 -0.594600
vn 0.276400 -0.438400 -0.855200
vn 0.226300 -0.923100 -0.310800
vn -0.340100 0.416500 -0.843100
vn -0.047400 0.459800 0.886700
vn 0.166700 0.543300 0.822800
vn -0.995300 0.004900 0.096200
vn -0.628500 0.762500 0.153800
vn 0.068700 -0.918200 -0.390200
vn 0.242900 0.957400 0.156000
vn -0.526200 -0.712200 0.464700
vn -0.982100 0.187800 -0.013700
vn 0.837700 0.332900 -0.432900
vn -0.051600 -0.285700 0.956900
vn -0.357800 -0.279300 -0.891000
vn -0.056300 -0.039700 -0.997600
vn -0.750400 0.128700 -0.648300
vn -0.092900 -0.163400 -0.982200
vn -0.727100 -0.116800 0.676600
vn -0.762100 -0.040300 -0.646300
vn -0.296500 0.411600 -0.861800
vn -0.317700 -0.615000 -0.721700
vn -0.919700 -0.285300 -0.269800
vn -0.410400 0.854000 -0.319900
vn -0.416100 0.906000 -0.077700
usemtl None
s off
f 1//1 12//1 2//1
f 5//2 10//2 6//2
f 9//3 10//3 8//3
f 2//4 11//4 1//4
f 15//5 7//5 14//5
f 15//6 8//6 7//6
f 16//7 3//7 4//7
f 12//8 19//8 17//8
f 16//9 1//9 20//9
f 16//10 20//10 3//10
f 20//11 11//11 22//11
f 20//12 22//12 3//12
f 9//13 3//13 22//13
f 12//14 24//14 19//14
f 12//15 16//15 24//15
f 9//16 4//16 3//16
f 1//17 11//17 20//17
f 25//18 13//18 14//18
f 15//19 4//19 9//19
f 13//20 24//20 16//20
f 13//21 16//21 4//21
f 21//22 26//22 18//22
f 21//23 18//23 17//23
f 2//24 12//24 17//24
f 24//25 13//25 25//25
f 13//26 4//26 15//26
f 19//27 23//27 17//27
f 10//28 22//28 6//28
f 22//29 11//29 6//29
f 8//30 5//30 26//30
f 5//31 6//31 18//31
f 13//32 15//32 14//32
f 11//33 2//33 6//33
f 15//34 9//34 8//34
f 18//35 26//35 5//35
f 12//36 1//36 16//36
f 9//37 22//37 10//37
f 7//38 23//38 25//38
f 19//39 24//39 23//39
f 21//40 23//40 26//40
f 24//41 25//41 23//41
f 10//42 5//42 8//42
f 26//43 23//43 7//43
f 23//44 21//44 17//44
f 14//45 7//45 25//45
f 7//46 8//46 26//46
f 17//47 18//47 2//47
f 2//48 18//48 6//48
