# Blender v2.75 (sub 0) OBJ File: ''
# www.blender.org
mtllib LL_com._reduced.mtl
o foo.000_foo.024
v -0.158023 -0.364683 0.250120
v 0.004910 -0.135614 -0.717843
v -0.183491 0.756766 0.380747
v -0.322760 0.808248 -0.063473
v 0.435441 0.721752 -0.269019
v 0.185523 0.859904 0.106945
v 0.089513 0.082862 -0.847552
v -0.035256 0.394108 -0.789266
v -0.272869 0.549676 0.561084
v -0.082023 0.344492 0.768777
v 0.103734 0.755431 -0.451464
v 0.621223 0.558964 0.282708
v 0.566028 0.517478 -0.359984
v 0.355842 0.222979 0.735097
v -0.200722 0.290739 -0.734397
v 0.166929 0.656603 0.565813
v -0.241489 0.651948 -0.512341
v 0.216025 -0.328067 0.193583
v 0.369807 0.170643 -0.740815
v 0.353585 0.430667 -0.682485
v 0.160604 -0.229184 0.547390
v -0.055101 -0.180362 0.635448
vn 0.046300 0.912600 0.406200
vn 0.231600 0.268000 -0.935200
vn -0.160100 0.624700 0.764300
vn -0.174900 0.688400 0.703900
vn -0.040200 0.983200 -0.178100
vn 0.815500 0.568900 -0.106800
vn 0.006300 -0.245900 0.969300
vn 0.244400 -0.459900 0.853700
vn -0.990900 -0.132700 0.024200
vn -0.905500 -0.234100 0.353800
vn -0.986100 -0.154600 -0.060100
vn 0.212200 0.954500 -0.209700
vn 0.890800 -0.452000 -0.047300
vn 0.910000 -0.408800 -0.068400
vn -0.868800 -0.428700 -0.247700
vn 0.283800 0.226700 -0.931700
vn -0.025200 -0.899200 0.436800
vn 0.145300 0.645300 -0.750000
vn -0.750000 0.587800 0.303300
vn -0.083600 0.697500 -0.711700
vn 0.186500 0.426700 0.884900
vn 0.603000 -0.740700 -0.296100
vn -0.153100 0.975000 0.161000
vn -0.210400 0.910800 -0.355200
vn 0.415700 0.825200 0.382400
vn 0.550700 0.832500 0.060200
vn -0.337400 0.040900 -0.940500
vn -0.507100 0.409100 -0.758600
vn 0.798900 0.178700 -0.574300
vn 0.840900 -0.472600 0.263800
vn -0.807500 -0.183800 0.560500
vn 0.136100 -0.948400 0.286400
vn 0.442200 -0.578300 -0.685600
vn 0.062100 -0.973500 -0.219900
vn -0.516300 -0.280500 -0.809200
vn 0.882700 -0.423700 0.203200
vn 0.576000 0.610400 -0.543700
vn 0.391700 0.714100 -0.580300
vn 0.533100 0.499000 0.683300
vn -0.984100 -0.001900 -0.177500
usemtl None
s off
f 16//1 6//1 3//1
f 7//2 8//2 20//2
f 9//3 10//3 16//3
f 9//4 16//4 3//4
f 4//5 6//5 11//5
f 12//6 13//6 5//6
f 14//7 10//7 22//7
f 14//8 22//8 21//8
f 1//9 9//9 4//9
f 1//10 22//10 9//10
f 1//11 4//11 15//11
f 11//12 6//12 5//12
f 12//13 19//13 13//13
f 12//14 18//14 19//14
f 2//15 1//15 15//15
f 7//16 20//16 19//16
f 21//17 22//17 1//17
f 11//18 20//18 8//18
f 3//19 4//19 9//19
f 8//20 17//20 11//20
f 10//21 14//21 16//21
f 2//22 19//22 18//22
f 3//23 6//23 4//23
f 4//24 11//24 17//24
f 6//25 16//25 12//25
f 6//26 12//26 5//26
f 15//27 8//27 7//27
f 15//28 17//28 8//28
f 20//29 13//29 19//29
f 21//30 18//30 14//30
f 10//31 9//31 22//31
f 21//32 1//32 18//32
f 2//33 7//33 19//33
f 1//34 2//34 18//34
f 7//35 2//35 15//35
f 12//36 14//36 18//36
f 5//37 13//37 20//37
f 20//38 11//38 5//38
f 16//39 14//39 12//39
f 4//40 17//40 15//40
