# Blender v2.75 (sub 0) OBJ File: ''
# www.blender.org
mtllib RA_com_reduced.mtl
o foo.000_foo.026
v 0.662889 -0.586938 -0.147013
v 0.447731 -0.360806 -0.588652
v 0.304575 -0.847081 -0.168822
v -0.163194 0.580015 0.324400
v 0.545599 0.121598 -0.574937
v 0.843023 0.289322 -0.115507
v -0.351817 -0.204246 -0.638816
v -0.348193 -0.820426 -0.151770
v 0.078658 -0.921973 0.125243
v -0.703420 -0.234549 0.436942
v -0.745288 -0.529244 0.207397
v -0.928391 0.123241 0.075705
v -0.600090 0.560379 0.048732
v 0.521265 0.013216 0.629964
v -0.392158 0.234914 -0.597424
v -0.644309 0.411875 -0.318521
v -0.520751 0.216044 0.569838
v -0.804255 -0.425136 -0.183607
v 0.028012 -0.655532 -0.521011
v 0.909770 -0.119221 -0.161574
v -0.690573 -0.000697 -0.492268
v -0.266384 -0.841211 0.156438
v 0.805822 0.172469 0.229306
v -0.163855 -0.532306 0.624673
v 0.242742 -0.531690 0.545926
v 0.706097 -0.542292 0.265968
v -0.208287 0.578437 -0.299020
v -0.537667 -0.547322 -0.411844
vn 0.503200 -0.644800 -0.575300
vn -0.557000 0.374600 -0.741200
vn -0.776600 0.133300 0.615700
vn -0.963900 -0.254800 0.077500
vn -0.250300 -0.436300 -0.864300
vn 0.789500 0.194600 -0.582100
vn 0.707700 -0.123800 -0.695600
vn -0.924300 -0.029200 -0.380600
vn -0.795700 0.588800 -0.142300
vn 0.013500 -0.241900 -0.970200
vn -0.092000 0.946100 0.310700
vn 0.428600 0.771300 0.470600
vn -0.512000 -0.263500 -0.817600
vn -0.695700 -0.291200 -0.656700
vn 0.184900 -0.241400 0.952600
vn -0.408100 -0.718400 0.563300
vn 0.364300 -0.667700 -0.649200
vn -0.647300 -0.755200 -0.103400
vn -0.864200 0.274500 -0.421700
vn 0.268600 0.963000 -0.021900
vn 0.486000 -0.860300 0.154300
vn 0.327600 -0.752900 0.570700
vn -0.512800 -0.481000 0.711100
vn -0.260600 -0.754500 -0.602400
vn 0.935900 -0.113500 0.333600
vn 0.828200 -0.087200 0.553600
vn -0.537400 -0.839000 0.086100
vn 0.094000 0.623700 -0.776000
vn 0.475100 -0.366200 0.800100
vn -0.380200 0.744000 0.549500
vn 0.726100 -0.400600 -0.558900
vn -0.047800 0.050300 0.997600
vn -0.904200 -0.175100 0.389700
vn -0.240200 0.706700 -0.665500
vn 0.052600 0.522300 0.851100
vn -0.607500 -0.726700 -0.320500
vn 0.026700 0.023000 -0.999400
vn -0.369200 0.053500 -0.927800
vn -0.048200 -0.892800 -0.447800
vn -0.228300 -0.973600 -0.005000
vn -0.382600 -0.115300 0.916700
vn 0.883000 -0.467400 -0.041900
vn -0.045400 0.999000 0.000800
vn 0.082000 0.101000 -0.991500
vn -0.046500 -0.958900 -0.279900
vn -0.325500 0.889600 -0.320500
vn 0.586300 -0.809700 0.026200
vn 0.977800 0.142400 0.153800
vn -0.138900 -0.812400 0.566400
vn 0.126600 -0.751300 0.647700
vn -0.692500 0.548900 0.468200
vn 0.309700 0.810900 -0.496500
usemtl None
s off
f 1//1 3//1 2//1
f 15//2 21//2 16//2
f 17//3 12//3 10//3
f 18//4 11//4 12//4
f 19//5 28//5 7//5
f 20//6 5//6 6//6
f 20//7 2//7 5//7
f 21//8 18//8 12//8
f 13//9 16//9 12//9
f 19//10 7//10 2//10
f 6//11 14//11 23//11
f 6//12 4//12 14//12
f 21//13 7//13 28//13
f 21//14 28//14 18//14
f 25//15 14//15 24//15
f 11//16 22//16 24//16
f 3//17 19//17 2//17
f 18//18 8//18 11//18
f 12//19 16//19 21//19
f 6//20 27//20 4//20
f 26//21 9//21 3//21
f 26//22 25//22 9//22
f 10//23 11//23 24//23
f 19//24 8//24 28//24
f 23//25 26//25 20//25
f 23//26 14//26 26//26
f 11//27 8//27 22//27
f 5//28 15//28 27//28
f 26//29 14//29 25//29
f 17//30 4//30 13//30
f 1//31 2//31 20//31
f 14//32 17//32 24//32
f 12//33 11//33 10//33
f 15//34 16//34 27//34
f 4//35 17//35 14//35
f 28//36 8//36 18//36
f 5//37 2//37 15//37
f 21//38 15//38 7//38
f 3//39 8//39 19//39
f 8//40 9//40 22//40
f 24//41 17//41 10//41
f 20//42 26//42 1//42
f 4//43 27//43 13//43
f 2//44 7//44 15//44
f 3//45 9//45 8//45
f 27//46 16//46 13//46
f 1//47 26//47 3//47
f 6//48 23//48 20//48
f 22//49 9//49 24//49
f 25//50 24//50 9//50
f 13//51 12//51 17//51
f 27//52 6//52 5//52
