# Blender v2.75 (sub 0) OBJ File: ''
# www.blender.org
mtllib RL_com._reduced.mtl
o foo.000_foo.028
v 0.209820 -0.280190 0.273396
v 0.143473 -0.192478 0.512146
v -0.306029 0.095012 0.699884
v -0.159335 -0.203586 0.584302
v 0.015475 -0.179518 0.652511
v -0.190640 0.233476 0.789614
v -0.072633 0.710262 0.500389
v 0.151196 0.561029 0.646433
v 0.295730 0.712109 0.352025
v -0.260053 0.186966 -0.791358
v -0.485319 0.310317 -0.602822
v -0.282641 0.487647 -0.662127
v -0.192635 -0.330241 0.259345
v -0.615740 0.530973 -0.207238
v -0.196564 -0.040979 -0.781206
v -0.451816 0.618247 -0.418710
v -0.531949 0.449119 0.431008
v 0.156265 0.328252 0.730055
v 0.050316 0.098656 0.741778
v 0.335924 0.709049 -0.181141
v 0.048579 0.580841 -0.686882
v 0.306196 0.715603 -0.352710
v -0.049626 0.797273 -0.393470
v 0.126009 0.304240 -0.827066
v 0.036520 -0.116464 -0.687599
v 0.249955 0.832308 0.053901
v -0.457067 0.718798 0.281116
v -0.556350 0.636605 -0.143605
v -0.316416 0.802826 -0.156343
v -0.027048 0.885275 0.080051
v 0.211937 0.253807 -0.705271
v -0.395880 0.421478 0.647434
v 0.007958 -0.387414 0.110307
v 0.052452 -0.353136 0.356388
vn -0.211400 -0.401400 0.891200
vn -0.267300 -0.459200 0.847100
vn 0.207400 0.825200 0.525300
vn 0.154100 0.906100 0.394000
vn -0.505600 0.308400 -0.805800
vn -0.888600 -0.457100 -0.038000
vn -0.694700 -0.223900 -0.683500
vn -0.802200 0.368200 -0.469900
vn -0.594800 0.459200 -0.659800
vn -0.800600 -0.578000 -0.157700
vn -0.845500 -0.150400 0.512400
vn -0.909400 -0.410600 0.066700
vn -0.885900 -0.426100 0.183300
vn 0.992900 -0.091900 0.075400
vn 0.177500 -0.031700 0.983600
vn 0.582800 0.491200 -0.647400
vn 0.248400 -0.352000 -0.902400
vn 0.935500 -0.155700 0.317200
vn 0.962600 -0.103200 0.250400
vn 0.207500 0.917900 0.338200
vn -0.570200 0.821100 -0.025600
vn -0.329400 0.941200 0.074900
vn 0.687800 -0.356000 -0.632600
vn 0.875100 -0.425600 -0.230300
vn -0.558600 0.786100 -0.264700
vn 0.718600 0.688500 -0.098200
vn -0.174300 0.377800 -0.909400
vn -0.155900 -0.974100 0.163900
vn -0.427200 -0.871500 -0.240700
vn -0.172000 -0.930900 -0.322300
vn -0.895300 0.427100 0.126600
vn -0.072500 -0.064500 -0.995300
vn 0.554200 -0.719600 0.418400
vn -0.731500 0.603000 -0.318200
vn 0.986700 -0.143300 -0.076100
vn 0.963500 -0.203100 -0.174700
vn -0.589000 -0.032400 0.807500
vn 0.598700 -0.764700 -0.238300
vn 0.016900 -0.307400 0.951400
vn 0.833900 0.202600 0.513400
vn 0.243000 0.940800 -0.236400
vn 0.167300 0.967800 -0.187800
vn -0.203300 0.396700 -0.895100
vn -0.127500 0.506000 0.853100
vn 0.068600 0.338600 0.938400
vn -0.292900 0.742800 -0.602100
vn -0.922600 0.348300 0.165800
vn -0.075100 -0.864300 0.497400
vn 0.463200 -0.738100 0.490600
vn -0.231900 -0.898100 0.373800
vn 0.709000 -0.294400 0.640800
vn 0.692900 -0.292800 0.658900
vn -0.341500 0.701000 0.626000
vn -0.135100 0.975300 -0.174800
vn 0.247200 0.817500 -0.520200
vn -0.713100 0.481300 0.509800
vn 0.837700 0.212900 -0.502900
vn -0.348800 0.841700 -0.412100
vn 0.439700 -0.897000 0.045400
vn -0.144600 0.572700 0.806900
vn -0.813600 -0.508700 0.281600
vn 0.870800 0.487500 0.062900
vn -0.254000 0.735800 -0.627800
vn -0.185300 0.914200 0.360500
usemtl None
s off
f 3//1 5//1 6//1
f 3//2 4//2 5//2
f 7//3 8//3 9//3
f 7//4 9//4 30//4
f 11//5 12//5 10//5
f 11//6 13//6 14//6
f 11//7 10//7 15//7
f 11//8 14//8 16//8
f 11//9 16//9 12//9
f 11//10 15//10 13//10
f 17//11 3//11 32//11
f 17//12 14//12 13//12
f 17//13 13//13 3//13
f 20//14 9//14 1//14
f 18//15 6//15 19//15
f 21//16 22//16 24//16
f 24//17 25//17 15//17
f 1//18 18//18 2//18
f 1//19 9//19 18//19
f 9//20 26//20 30//20
f 27//21 29//21 28//21
f 27//22 30//22 29//22
f 25//23 24//23 31//23
f 25//24 31//24 1//24
f 29//25 16//25 28//25
f 22//26 26//26 20//26
f 12//27 21//27 10//27
f 33//28 34//28 13//28
f 33//29 13//29 15//29
f 33//30 15//30 25//30
f 28//31 14//31 27//31
f 15//32 10//32 24//32
f 1//33 2//33 34//33
f 16//34 14//34 28//34
f 1//35 31//35 22//35
f 1//36 22//36 20//36
f 32//37 3//37 6//37
f 25//38 1//38 33//38
f 19//39 6//39 5//39
f 18//40 9//40 8//40
f 26//41 22//41 23//41
f 26//42 23//42 30//42
f 10//43 21//43 24//43
f 6//44 8//44 32//44
f 6//45 18//45 8//45
f 12//46 16//46 23//46
f 27//47 14//47 17//47
f 34//48 5//48 4//48
f 34//49 2//49 5//49
f 34//50 4//50 13//50
f 18//51 19//51 5//51
f 18//52 5//52 2//52
f 27//53 32//53 7//53
f 23//54 29//54 30//54
f 21//55 23//55 22//55
f 27//56 17//56 32//56
f 24//57 22//57 31//57
f 29//58 23//58 16//58
f 1//59 34//59 33//59
f 7//60 32//60 8//60
f 3//61 13//61 4//61
f 26//62 9//62 20//62
f 12//63 23//63 21//63
f 27//64 7//64 30//64
