# Blender v2.77 (sub 0) OBJ File: ''
# www.blender.org
mtllib arm_right_1_joint_com_constraints.mtl
o foo
v -0.870874 0.562961 0.168350
v -0.844121 0.498201 -0.105067
v -0.678140 0.786199 -0.161015
v -0.751583 0.504014 0.697931
v -0.709570 0.813599 0.273736
v -0.907664 0.178261 0.520940
v -0.551738 0.993559 0.066599
v -0.408227 -0.856837 0.302216
v -0.615259 -0.711523 0.314652
v -0.428231 -0.761186 -0.179395
v -0.342507 -0.892491 0.401363
v -0.281749 -0.895022 0.022062
v -0.814604 -0.240030 0.098407
v -0.833216 -0.368396 0.505113
v -0.376777 0.967785 -0.326233
v -0.019374 1.131442 -0.172561
v 0.017846 0.960672 -0.487614
v -0.311143 0.876698 -0.493539
v -0.707187 0.289410 -0.483906
v -0.567564 0.846028 -0.310444
v -0.294394 0.610844 -0.717987
v -0.588091 0.453745 -0.593002
v -0.780061 0.554911 -0.215415
v 0.315493 0.506421 1.017931
v 0.068934 0.792759 0.863500
v -0.171772 0.586250 1.014551
v 0.149517 0.099006 1.151493
v 0.404280 -0.249556 1.066277
v 0.036054 0.627224 -0.813845
v 0.148365 0.557096 -0.812558
v -0.139477 0.235119 -0.841920
v -0.625624 0.543924 0.814973
v -0.471740 0.493006 0.950517
v -0.201724 0.700104 0.927895
v -0.609689 0.736665 0.646342
v -0.656525 0.803595 0.469248
v -0.692312 0.079775 0.912706
v 0.557237 0.238658 0.992062
v 0.725035 -0.117832 0.865613
v 0.470058 0.562105 0.906974
v 0.737275 0.225598 0.820518
v 0.576398 -0.341900 -0.303383
v 0.635617 0.737268 -0.359603
v 0.814735 0.168237 0.018234
v 0.398330 -0.108397 -0.586167
v 0.437617 -0.748153 -0.066170
v 0.760189 -0.315170 0.089342
v 0.688428 -0.483867 0.055025
v 0.285654 -0.610842 -0.380009
v -0.540582 0.335221 0.974885
v -0.342308 0.054706 1.119510
v 0.132212 1.094660 0.318040
v 0.021432 1.033793 0.543366
v 0.180546 1.056552 0.424956
v 0.314632 1.115565 0.110542
v -0.232116 1.097100 0.325853
v 0.237624 -0.921176 0.139533
v 0.067869 -0.961383 0.139496
v 0.416381 -0.819872 0.013707
v 0.358016 -0.889888 0.296643
v 0.329471 0.232832 -0.730414
v 0.353710 0.652100 -0.681219
v 0.257211 0.256794 -0.794714
v 0.331643 -0.704822 0.829934
v 0.548926 -0.566444 0.886460
v -0.534923 -0.548914 0.791426
v -0.764327 -0.323959 0.722516
v -0.646246 -0.619720 0.589717
v -0.527764 -0.162551 1.003847
v 0.180110 -0.144364 1.128411
v -0.105108 -0.358698 1.089693
v -0.235256 -0.449383 1.047525
v -0.878508 0.020597 0.135526
v -0.898370 -0.120246 0.368008
v -0.471700 0.952521 -0.264683
v 0.025257 0.045702 -0.813149
v -0.095830 -0.815530 -0.258527
v 0.054070 0.281971 1.133824
v 0.426293 0.598520 0.907733
v -0.411039 0.954733 0.504462
v -0.336165 0.798351 0.773310
v 0.625498 0.873417 -0.025435
v 0.774808 0.626133 0.444900
v 0.319287 0.987610 -0.400514
v 0.280699 1.083892 -0.214741
v 0.004818 0.165288 1.161668
v 0.856063 -0.143683 0.325214
v -0.486083 0.344799 -0.675513
v -0.152935 -0.857387 0.701594
v -0.065198 -0.977680 0.368115
v 0.102810 -0.918399 0.488137
v 0.834635 0.347011 0.650037
v -0.178418 0.815877 -0.603453
v -0.529498 0.220101 -0.651459
v 0.540024 0.799870 0.656637
v 0.511454 0.949136 0.402391
v 0.730608 0.660119 0.522055
v -0.459892 1.054298 0.101298
v -0.113279 0.852822 -0.591102
v 0.765922 -0.515064 0.552156
vn -0.0732 -0.9458 -0.3165
vn 0.0246 -0.5437 -0.8389
vn -0.5746 -0.8070 -0.1364
vn 0.5366 -0.7886 0.3002
vn 0.9670 -0.0888 0.2387
vn -0.8583 0.4449 0.2556
vn 0.7560 0.6365 0.1527
vn 0.0897 -0.5229 0.8476
vn -0.1948 0.2498 0.9485
vn 0.0508 0.8910 -0.4512
vn 0.8206 -0.2995 0.4866
vn -0.9964 0.0191 -0.0832
vn -0.3775 -0.4512 -0.8087
vn 0.0122 0.9638 0.2663
vn 0.5724 -0.4178 -0.7055
vn -0.3321 0.5962 -0.7309
vn 0.6708 0.3671 0.6445
vn -0.0383 -0.1281 0.9910
vn 0.4133 -0.9001 -0.1375
vn 0.1190 -0.0159 -0.9928
vn 0.2398 0.6126 0.7531
vn 0.3806 -0.3433 -0.8587
vn -0.6805 0.6889 -0.2497
vn 0.3129 0.9004 0.3024
vn -0.6632 0.5232 0.5353
vn -0.2533 -0.9294 0.2686
vn -0.9502 -0.1651 0.2644
vn -0.4160 0.7309 0.5410
vn 0.6138 -0.1991 -0.7640
vn 0.9849 0.1559 -0.0751
vn 0.9310 0.3469 -0.1132
vn 0.1632 -0.9840 0.0709
vn -0.3618 -0.6443 0.6738
vn -0.6879 -0.2053 0.6962
vn 0.3069 -0.7473 -0.5894
vn -0.3072 0.9194 -0.2458
vn -0.8812 -0.0635 0.4684
vn 0.7445 -0.5076 -0.4338
vn 0.5345 0.5739 -0.6205
vn -0.3361 -0.2027 0.9197
vn 0.9192 -0.3573 -0.1657
vn -0.4644 -0.7237 0.5104
vn -0.8141 -0.5722 0.0993
vn 0.4000 0.4643 0.7902
vn -0.3288 -0.9442 -0.0198
vn -0.8265 0.2717 -0.4930
vn 0.1601 -0.8817 0.4438
vn 0.8561 0.0372 0.5154
vn -0.5393 0.5106 -0.6697
vn 0.2359 0.2146 0.9478
vn -0.7006 0.2317 0.6749
vn -0.5702 0.7788 0.2614
vn -0.7103 -0.3633 -0.6029
vn 0.6040 0.7519 -0.2642
vn 0.1404 0.9839 -0.1104
vn -0.5939 0.0519 -0.8028
vn 0.6728 0.0477 -0.7383
vn -0.4166 0.5876 0.6937
vn 0.8572 0.4114 0.3098
vn -0.1247 0.7837 0.6085
vn -0.5020 0.0887 0.8603
vn 0.0596 0.4023 0.9136
vn 0.5423 -0.0424 0.8391
vn 0.8310 -0.0384 -0.5550
vn -0.8037 -0.4792 0.3526
vn -0.3929 0.1379 -0.9092
vn -0.5692 -0.8180 0.0831
vn 0.2337 0.6864 -0.6886
vn 0.4920 0.1272 -0.8612
vn 0.1354 -0.4415 0.8870
vn -0.8368 -0.4771 -0.2688
vn -0.5881 -0.3813 0.7133
vn 0.7193 -0.6773 -0.1546
vn -0.1913 0.7907 -0.5816
vn -0.2413 -0.8800 -0.4092
vn -0.1359 -0.9795 -0.1489
vn -0.5564 -0.8191 -0.1396
vn 0.3411 -0.8827 0.3232
vn 0.4921 -0.8498 0.1888
vn 0.9640 -0.1163 0.2393
vn -0.9197 0.3094 0.2416
vn -0.8553 0.4573 0.2436
vn 0.7659 0.6365 0.0915
vn 0.6938 0.6524 0.3050
vn 0.0015 -0.6465 0.7629
vn 0.1031 -0.5106 0.8536
vn -0.2845 0.2728 0.9191
vn -0.1254 0.2800 0.9518
vn -0.2792 0.2644 0.9231
vn 0.0737 0.8804 -0.4685
vn -0.9946 0.0202 -0.1021
vn -0.9568 -0.2052 -0.2061
vn -0.9509 -0.0819 -0.2985
vn -0.9968 0.0096 -0.0793
vn -0.2769 -0.4924 -0.8251
vn -0.3750 -0.4330 -0.8197
vn -0.1772 0.9841 -0.0078
vn 0.0869 0.9502 0.2994
vn -0.0216 0.9964 0.0814
vn 0.0082 0.9974 0.0722
vn -0.2049 0.6156 -0.7609
vn -0.2538 0.5771 -0.7762
vn 0.6588 0.3524 0.6646
vn 0.6766 0.4599 0.5751
vn 0.7065 0.4039 0.5811
vn -0.0824 -0.1186 0.9895
vn -0.1889 -0.1780 0.9657
vn 0.0284 -0.0908 0.9955
vn 0.0438 0.0518 -0.9977
vn 0.1205 -0.0458 -0.9917
vn 0.4813 0.5645 0.6706
vn 0.2861 0.6801 0.6750
vn 0.3381 -0.4211 -0.8416
vn -0.8559 0.4408 -0.2704
vn -0.8658 0.4613 -0.1940
vn -0.8001 0.5922 -0.0952
vn -0.6765 0.7031 -0.2191
vn -0.8185 0.5666 -0.0949
vn 0.3027 0.8364 0.4570
vn 0.1823 0.9493 0.2559
vn 0.2946 0.7839 0.5465
vn 0.2266 0.8081 0.5437
vn -0.7404 0.5402 0.4000
vn -0.9462 -0.0744 0.3150
vn -0.5189 0.7452 0.4189
vn 0.9673 0.2129 -0.1379
vn 0.9954 0.0790 -0.0537
vn 0.2731 -0.9577 0.0907
vn 0.2294 -0.9685 0.0964
vn 0.2102 -0.8869 -0.4114
vn 0.2826 -0.8210 -0.4960
vn 0.2117 -0.8860 -0.4125
vn -0.3138 0.9169 -0.2466
vn -0.4785 0.8498 -0.2209
vn -0.8535 0.1355 0.5032
vn 0.6418 -0.5382 -0.5463
vn 0.9491 -0.1480 -0.2782
vn 0.9362 -0.3183 -0.1491
vn 0.8736 -0.2925 -0.3889
vn -0.4700 -0.7922 0.3894
vn 0.4644 0.3403 0.8177
vn -0.3058 -0.9423 -0.1362
vn -0.7697 0.3992 -0.4983
vn -0.8881 0.1827 -0.4217
vn -0.7953 0.4468 -0.4096
vn 0.0746 -0.9316 0.3557
vn -0.5541 0.5164 -0.6530
vn -0.4759 0.6721 -0.5672
vn -0.4790 0.6783 -0.5572
vn 0.2396 -0.0618 0.9689
vn 0.3030 0.1832 0.9352
vn 0.1467 0.1706 0.9744
vn 0.3548 0.0309 0.9344
vn -0.5485 0.3561 0.7565
vn -0.6926 0.2464 0.6779
vn -0.5945 0.7737 0.2192
vn -0.5343 0.8243 0.1871
vn -0.4242 0.8659 0.2652
vn 0.6217 0.7828 0.0272
vn 0.6177 0.7347 -0.2806
vn 0.5702 0.8097 -0.1383
vn -0.6837 0.0111 -0.7297
vn 0.7470 0.0347 -0.6639
vn -0.3895 0.5855 0.7109
vn -0.4425 0.6109 0.6565
vn -0.3291 0.5155 0.7911
vn -0.1243 0.7849 0.6070
vn -0.1993 0.8538 0.4809
vn -0.1983 0.8222 0.5335
vn -0.5098 -0.0227 0.8600
vn 0.0803 0.5258 0.8468
vn -0.0166 0.6028 0.7977
vn 0.5754 -0.1889 0.7958
vn 0.6908 0.0699 0.7197
vn 0.8980 -0.1615 -0.4093
vn 0.8350 -0.0626 -0.5466
vn 0.8307 -0.1019 -0.5473
vn -0.4740 0.2048 -0.8564
vn -0.2822 0.1936 -0.9396
vn -0.4381 -0.0208 -0.8987
vn -0.5847 -0.7870 0.1968
vn -0.0106 0.6990 -0.7150
vn 0.1590 0.6431 -0.7491
vn 0.3068 0.4762 -0.8241
vn 0.1115 -0.3184 0.9414
vn -0.8106 -0.3511 -0.4687
vn -0.8727 -0.4528 -0.1829
vn -0.9254 -0.1794 -0.3338
vn -0.9342 -0.3257 -0.1456
vn -0.5117 -0.4066 0.7568
vn -0.6645 -0.5104 0.5459
vn 0.7769 -0.6296 0.0045
vn 0.7564 -0.5738 -0.3141
vn -0.1830 0.8551 -0.4851
vn -0.2561 0.6809 -0.6861
vn -0.2011 0.8251 -0.5281
usemtl None
s off
f 58//1 12//1 77//1
f 76//2 49//2 77//2
f 10//3 8//3 9//3
f 100//4 64//4 60//4
f 87//5 39//5 100//5
f 36//6 5//6 1//6
f 96//7 97//7 83//7
f 64//8 71//8 72//8
f 86//9 26//9 51//9
f 17//10 85//10 84//10
f 100//11 39//11 65//11
f 73//12 6//12 1//12
f 94//13 31//13 76//13
f 53//14 52//14 56//14
f 42//15 49//15 45//15
f 93//16 21//16 18//16
f 92//17 40//17 41//17
f 71//18 70//18 86//18
f 57//19 59//19 60//19
f 63//20 31//20 30//20
f 79//21 25//21 24//21
f 45//22 76//22 63//22
f 3//23 7//23 75//23
f 55//24 54//24 96//24
f 35//25 4//25 32//25
f 11//26 90//26 89//26
f 74//27 67//27 6//27
f 80//28 35//28 81//28
f 45//29 63//29 61//29
f 92//30 44//30 83//30
f 82//31 83//31 43//31
f 57//32 60//32 91//32
f 89//33 72//33 66//33
f 37//34 67//34 69//34
f 46//35 59//35 77//35
f 75//36 98//36 15//36
f 37//37 6//37 67//37
f 46//38 42//38 48//38
f 84//39 43//39 62//39
f 69//40 72//40 51//40
f 47//41 100//41 48//41
f 68//42 89//42 66//42
f 9//43 68//43 14//43
f 24//44 40//44 79//44
f 90//45 8//45 12//45
f 19//46 23//46 22//46
f 89//47 91//47 64//47
f 41//48 39//48 92//48
f 20//49 18//49 22//49
f 24//50 78//50 27//50
f 4//51 50//51 32//51
f 5//52 80//52 98//52
f 94//53 10//53 19//53
f 84//54 85//54 82//54
f 16//55 55//55 85//55
f 94//56 22//56 88//56
f 62//57 61//57 63//57
f 32//58 33//58 81//58
f 83//59 97//59 92//59
f 53//60 81//60 25//60
f 37//61 51//61 50//61
f 26//62 78//62 24//62
f 38//63 28//63 39//63
f 45//64 44//64 42//64
f 68//65 67//65 14//65
f 88//66 21//66 31//66
f 11//67 9//67 8//67
f 62//68 29//68 17//68
f 30//69 62//69 63//69
f 28//70 71//70 65//70
f 9//71 13//71 10//71
f 67//72 66//72 69//72
f 48//73 100//73 60//73
f 99//74 18//74 17//74
f 10//75 77//75 12//75
f 58//76 90//76 12//76
f 10//77 12//77 8//77
f 91//78 60//78 64//78
f 100//79 65//79 64//79
f 87//80 92//80 39//80
f 1//81 6//81 4//81
f 4//82 36//82 1//82
f 83//83 82//83 96//83
f 96//84 95//84 97//84
f 72//85 89//85 64//85
f 64//86 65//86 71//86
f 50//87 51//87 26//87
f 86//88 78//88 26//88
f 26//89 33//89 50//89
f 17//90 16//90 85//90
f 1//91 2//91 73//91
f 73//92 13//92 74//92
f 2//93 19//93 73//93
f 74//94 6//94 73//94
f 76//95 77//95 10//95
f 10//96 94//96 76//96
f 98//97 56//97 16//97
f 53//98 54//98 52//98
f 52//99 55//99 16//99
f 16//100 56//100 52//100
f 93//101 99//101 29//101
f 29//102 21//102 93//102
f 38//103 41//103 40//103
f 92//104 97//104 40//104
f 95//105 40//105 97//105
f 86//106 51//106 71//106
f 72//107 71//107 51//107
f 70//108 27//108 86//108
f 29//109 30//109 31//109
f 63//110 76//110 31//110
f 79//111 40//111 95//111
f 95//112 25//112 79//112
f 45//113 49//113 76//113
f 3//114 23//114 2//114
f 2//115 1//115 3//115
f 5//116 7//116 3//116
f 75//117 20//117 3//117
f 3//118 1//118 5//118
f 95//119 96//119 54//119
f 55//120 52//120 54//120
f 54//121 53//121 25//121
f 25//122 95//122 54//122
f 35//123 36//123 4//123
f 74//124 14//124 67//124
f 80//125 36//125 35//125
f 43//126 83//126 44//126
f 92//127 87//127 44//127
f 91//128 90//128 58//128
f 58//129 57//129 91//129
f 58//130 77//130 57//130
f 49//131 46//131 77//131
f 59//132 57//132 77//132
f 16//133 15//133 98//133
f 75//134 7//134 98//134
f 37//135 4//135 6//135
f 46//136 49//136 42//136
f 47//137 44//137 87//137
f 87//138 100//138 47//138
f 48//139 42//139 47//139
f 68//140 11//140 89//140
f 24//141 38//141 40//141
f 90//142 11//142 8//142
f 20//143 22//143 23//143
f 19//144 2//144 23//144
f 23//145 3//145 20//145
f 89//146 90//146 91//146
f 21//147 22//147 18//147
f 20//148 75//148 15//148
f 15//149 18//149 20//149
f 70//150 28//150 27//150
f 38//151 24//151 27//151
f 78//152 86//152 27//152
f 27//153 28//153 38//153
f 33//154 32//154 50//154
f 4//155 37//155 50//155
f 98//156 7//156 5//156
f 5//157 36//157 80//157
f 80//158 56//158 98//158
f 96//159 82//159 55//159
f 43//160 84//160 82//160
f 85//161 55//161 82//161
f 94//162 19//162 22//162
f 62//163 43//163 61//163
f 34//164 81//164 33//164
f 35//165 32//165 81//165
f 33//166 26//166 34//166
f 34//167 25//167 81//167
f 53//168 56//168 80//168
f 80//169 81//169 53//169
f 37//170 69//170 51//170
f 24//171 25//171 26//171
f 34//172 26//172 25//172
f 65//173 39//173 28//173
f 41//174 38//174 39//174
f 47//175 42//175 44//175
f 45//176 61//176 44//176
f 43//177 44//177 61//177
f 88//178 22//178 21//178
f 21//179 29//179 31//179
f 31//180 94//180 88//180
f 11//181 68//181 9//181
f 99//182 17//182 29//182
f 84//183 62//183 17//183
f 30//184 29//184 62//184
f 28//185 70//185 71//185
f 19//186 10//186 13//186
f 9//187 14//187 13//187
f 13//188 73//188 19//188
f 14//189 74//189 13//189
f 72//190 69//190 66//190
f 67//191 68//191 66//191
f 60//192 59//192 48//192
f 46//193 48//193 59//193
f 16//194 17//194 15//194
f 99//195 93//195 18//195
f 18//196 15//196 17//196
