# Blender v2.77 (sub 0) OBJ File: ''
# www.blender.org
mtllib leg_left_1_joint_com_constraints.mtl
o foo
v -0.187346 0.500264 0.798713
v -0.325236 0.177690 -0.231329
v -0.393892 0.436393 0.824931
v 0.182928 0.508214 0.889948
v -0.222660 0.470423 0.904970
v -0.301839 0.099770 -0.272811
v 0.763874 -0.361843 0.540620
v 0.556275 -0.513306 0.585942
v 0.797874 -0.232186 0.639467
v 0.678107 -0.380054 0.672954
v 0.799678 -0.333264 0.501772
v 0.601565 0.375900 0.677429
v 0.501422 0.413019 0.768580
v 0.642853 0.222879 0.854398
v 0.802196 0.278997 0.434904
v 0.824922 0.250490 0.499168
v 0.794786 0.090033 0.086879
v -0.717465 -0.079265 -0.063601
v -0.431839 -0.057677 -0.284796
v -0.458821 -0.193145 -0.219779
v 0.919501 -0.010432 0.356487
v 0.901371 0.022041 0.205730
v 0.860677 -0.194880 0.490703
v 0.912722 0.116086 0.342138
v 0.891369 0.123773 0.474326
v -0.535766 -0.505321 0.629655
v -0.142594 -0.619027 0.613906
v -0.615018 -0.461138 0.631472
v -0.737681 -0.317183 0.219902
v -0.771948 -0.302469 0.311003
v -0.385912 -0.323207 -0.155979
v -0.800784 -0.063041 0.076699
v 0.067115 0.359008 1.028344
v 0.338360 0.023754 1.042600
v 0.532032 -0.148274 0.928162
v 0.470569 -0.307971 0.914134
v -0.015445 -0.450999 0.966547
v -0.440121 -0.401619 0.897135
v -0.858801 -0.142628 0.351026
v -0.857221 0.076754 0.324281
v -0.859695 -0.027441 0.375072
v 0.813527 -0.312712 0.297047
v 0.762214 -0.352988 0.250253
v 0.651460 -0.071196 -0.024457
v 0.742657 -0.105149 0.055480
v -0.195058 -0.285293 -0.183426
v 0.130890 -0.228856 1.036582
v 0.246424 -0.220134 1.014680
v -0.100867 -0.333102 1.011615
v 0.103272 -0.388875 0.992005
v -0.167516 -0.544873 0.826188
v -0.628562 0.040016 -0.141138
v -0.556543 0.127059 -0.154278
v -0.786354 0.059574 0.056584
v -0.630110 0.137456 -0.063151
v 0.117387 0.493303 0.925142
v -0.806200 0.070725 0.101580
v -0.789360 0.234166 0.476331
v 0.174636 -0.586925 0.863596
v -0.118582 -0.050629 -0.306443
v -0.514677 0.333418 0.885918
v -0.535485 0.027721 0.918059
v -0.224224 0.051221 1.049041
v -0.074137 0.166445 1.062534
v 0.816547 -0.077206 0.645420
v -0.732727 0.105369 0.715161
v -0.695058 -0.160549 0.758455
v -0.800101 0.097102 0.564558
v -0.692048 -0.310523 0.713779
v -0.676066 -0.292289 0.751587
v -0.313324 -0.099626 -0.319762
v 0.895107 0.143168 0.309222
v -0.315815 -0.335891 0.966072
v -0.520588 0.375611 0.798232
vn 0.0893 -0.5190 0.8501
vn -0.5738 0.7598 -0.3056
vn -0.6032 -0.5955 0.5305
vn -0.6446 -0.2226 -0.7314
vn 0.3419 0.3143 0.8856
vn 0.2824 -0.5160 -0.8087
vn -0.9223 -0.1273 0.3650
vn 0.5742 0.8042 0.1537
vn -0.0881 0.6275 0.7736
vn -0.4255 -0.7820 0.4554
vn 0.9930 0.0407 -0.1107
vn -0.3787 -0.1074 0.9193
vn -0.2776 -0.9229 -0.2669
vn -0.1782 -0.4613 0.8692
vn -0.3180 0.3092 0.8963
vn 0.7763 -0.3472 -0.5261
vn 0.9452 -0.3250 -0.0324
vn -0.2704 0.9465 0.1760
vn -0.8420 -0.5163 0.1567
vn -0.4815 -0.8560 -0.1880
vn 0.3033 0.5341 -0.7892
vn -0.8588 0.0171 -0.5120
vn 0.5185 0.0151 0.8549
vn -0.3917 0.7635 0.5134
vn 0.5254 0.7430 -0.4146
vn -0.3641 0.3501 -0.8630
vn -0.9803 -0.0672 -0.1855
vn 0.7144 -0.1126 0.6906
vn 0.1791 0.9072 -0.3806
vn 0.4294 0.4121 0.8036
vn 0.1470 -0.9873 -0.0598
vn -0.6879 0.1220 0.7155
vn 0.8691 0.1829 0.4596
vn -0.1623 -0.7299 0.6640
vn -0.2639 0.9300 -0.2559
vn -0.5905 -0.5970 -0.5431
vn -0.8744 -0.3841 -0.2964
vn 0.0866 0.1122 0.9899
vn -0.8138 0.5452 -0.2012
vn 0.5852 -0.8104 -0.0281
vn 0.4877 -0.6273 0.6071
vn 0.8309 0.5563 0.0130
vn 0.3348 -0.2308 0.9136
vn -0.4248 0.9043 -0.0426
vn -0.7921 0.5274 0.3072
vn 0.7806 0.4289 -0.4547
vn 0.9233 0.2759 -0.2671
vn 0.9447 -0.0677 0.3210
vn -0.3747 -0.3395 -0.8628
vn 0.1050 -0.9209 -0.3754
vn 0.6264 0.6560 0.4211
vn 0.0090 0.2287 -0.9735
vn 0.7186 -0.0808 -0.6907
vn 0.6046 -0.7420 0.2897
vn -0.6733 0.4554 -0.5824
vn -0.1493 -0.9388 0.3104
vn -0.0371 -0.4568 -0.8888
vn -0.5898 -0.1695 0.7896
vn -0.0554 -0.1144 0.9919
vn 0.7905 -0.4887 0.3691
vn 0.8888 0.4430 0.1178
vn -0.9671 0.1297 0.2189
vn -0.6473 0.6225 -0.4398
vn -0.5931 -0.5980 0.5391
vn -0.5524 -0.1241 -0.8243
vn 0.1843 -0.5028 -0.8445
vn 0.4356 -0.5347 -0.7241
vn 0.2922 -0.6062 -0.7397
vn -0.9098 -0.0621 0.4104
vn -0.9259 -0.0841 0.3684
vn -0.8825 -0.1505 0.4456
vn -0.9265 -0.1060 0.3611
vn -0.3250 -0.8368 0.4406
vn -0.3928 0.1226 0.9114
vn -0.4237 -0.1377 0.8953
vn -0.3039 -0.9137 -0.2698
vn -0.1962 -0.5084 0.8385
vn -0.2097 0.3185 0.9244
vn -0.2521 0.3454 0.9040
vn 0.7668 -0.3581 -0.5327
vn 0.9155 -0.4018 0.0216
vn 0.9392 -0.2946 -0.1764
vn -0.0795 0.9663 0.2449
vn -0.0831 0.9638 0.2535
vn -0.8503 -0.5018 0.1586
vn -0.5790 -0.8107 -0.0869
vn 0.2733 0.5147 -0.8127
vn 0.2808 0.3637 -0.8882
vn -0.7633 0.1625 -0.6252
vn -0.9106 0.0397 -0.4114
vn -0.4633 0.7859 0.4094
vn -0.3608 0.3633 -0.8590
vn -0.4774 0.2687 -0.8366
vn -0.9747 0.0021 -0.2234
vn -0.9797 0.0336 -0.1975
vn 0.7122 -0.0739 0.6981
vn 0.6701 -0.3169 0.6713
vn 0.6330 -0.3572 0.6868
vn 0.0925 0.8868 -0.4528
vn 0.1094 0.9568 -0.2694
vn -0.1471 0.8706 -0.4695
vn 0.1014 0.9454 -0.3097
vn 0.3188 0.4996 0.8054
vn 0.3581 0.5922 0.7219
vn -0.7145 0.0127 0.6995
vn 0.7332 0.2614 0.6277
vn -0.1935 -0.7057 0.6816
vn -0.3118 0.9316 -0.1867
vn -0.3104 0.8833 -0.3514
vn -0.2773 0.9282 -0.2482
vn -0.5906 -0.5973 -0.5426
vn -0.7953 -0.4352 -0.4220
vn -0.8739 -0.4091 -0.2626
vn 0.6363 -0.7707 -0.0343
vn 0.6051 -0.7957 -0.0277
vn 0.8178 0.5744 -0.0344
vn 0.1994 -0.2948 0.9345
vn 0.2789 -0.4496 0.8485
vn 0.3312 -0.2083 0.9203
vn 0.2671 -0.3474 0.8989
vn -0.7683 0.4693 0.4353
vn -0.8743 0.3093 0.3741
vn 0.9447 -0.0811 0.3179
vn 0.9249 -0.1252 0.3590
vn 0.9854 0.0704 0.1551
vn 0.1224 -0.9126 -0.3900
vn 0.1251 -0.9122 -0.3901
vn 0.6679 0.6330 0.3915
vn -0.1974 0.2354 -0.9516
vn 0.6476 -0.0506 -0.7603
vn 0.4813 -0.7434 0.4645
vn -0.6642 0.4607 -0.5888
vn -0.2549 -0.9218 0.2921
vn -0.1166 -0.6350 -0.7636
vn -0.5619 -0.1236 0.8179
vn 0.1965 -0.1843 0.9630
vn -0.0281 -0.0800 0.9964
vn -0.0097 -0.3632 0.9317
vn -0.2027 -0.1591 0.9662
vn 0.0312 -0.0494 0.9983
vn 0.0183 -0.2712 0.9623
vn 0.7505 -0.5137 0.4157
vn 0.8861 -0.3680 0.2818
vn -0.9551 0.2096 0.2093
usemtl None
s off
f 59//1 50//1 37//1
f 55//2 57//2 58//2
f 70//3 28//3 38//3
f 20//4 52//4 19//4
f 14//5 33//5 34//5
f 44//6 46//6 60//6
f 39//7 69//7 67//7
f 12//8 16//8 15//8
f 56//9 5//9 33//9
f 26//10 38//10 28//10
f 21//11 22//11 24//11
f 73//12 63//12 62//12
f 26//13 31//13 27//13
f 73//14 37//14 49//14
f 64//15 5//15 63//15
f 42//16 45//16 22//16
f 21//17 23//17 42//17
f 1//18 3//18 5//18
f 69//19 30//19 28//19
f 30//20 26//20 28//20
f 44//21 60//21 2//21
f 32//22 54//22 18//22
f 35//23 14//23 34//23
f 3//24 61//24 5//24
f 72//25 17//25 15//25
f 53//26 2//26 6//26
f 32//27 41//27 40//27
f 35//28 9//28 65//28
f 12//29 17//29 2//29
f 33//30 13//30 4//30
f 59//31 27//31 8//31
f 66//32 62//32 61//32
f 65//33 16//33 14//33
f 37//34 51//34 59//34
f 2//35 55//35 1//35
f 18//36 31//36 29//36
f 29//37 39//37 32//37
f 64//38 34//38 33//38
f 40//39 58//39 57//39
f 7//40 8//40 43//40
f 10//41 36//41 59//41
f 15//42 24//42 72//42
f 48//43 35//43 34//43
f 58//44 74//44 3//44
f 66//45 61//45 74//45
f 72//46 22//46 17//46
f 72//47 24//47 22//47
f 23//48 21//48 65//48
f 71//49 20//49 19//49
f 46//50 43//50 8//50
f 14//51 12//51 13//51
f 71//52 6//52 60//52
f 45//53 17//53 22//53
f 10//54 8//54 7//54
f 55//55 52//55 54//55
f 51//56 27//56 59//56
f 20//57 46//57 31//57
f 67//58 38//58 62//58
f 63//59 49//59 47//59
f 11//60 9//60 7//60
f 24//61 16//61 25//61
f 68//62 40//62 41//62
f 55//63 54//63 57//63
f 70//64 69//64 28//64
f 20//65 18//65 52//65
f 71//66 60//66 46//66
f 44//67 45//67 43//67
f 43//68 46//68 44//68
f 66//69 68//69 67//69
f 41//70 39//70 67//70
f 69//71 70//71 67//71
f 67//72 68//72 41//72
f 26//73 51//73 38//73
f 61//74 62//74 63//74
f 38//75 73//75 62//75
f 26//76 29//76 31//76
f 73//77 38//77 37//77
f 61//78 63//78 5//78
f 64//79 33//79 5//79
f 42//80 43//80 45//80
f 11//81 42//81 23//81
f 22//82 21//82 42//82
f 5//83 56//83 1//83
f 4//84 1//84 56//84
f 69//85 39//85 30//85
f 30//86 29//86 26//86
f 6//87 2//87 60//87
f 17//88 44//88 2//88
f 52//89 18//89 54//89
f 32//90 57//90 54//90
f 3//91 74//91 61//91
f 6//92 19//92 53//92
f 52//93 53//93 19//93
f 40//94 57//94 32//94
f 32//95 39//95 41//95
f 65//96 14//96 35//96
f 35//97 36//97 10//97
f 10//98 9//98 35//98
f 1//99 4//99 13//99
f 13//100 12//100 1//100
f 15//101 17//101 12//101
f 2//102 1//102 12//102
f 4//103 56//103 33//103
f 33//104 14//104 13//104
f 66//105 67//105 62//105
f 65//106 25//106 16//106
f 37//107 38//107 51//107
f 3//108 1//108 58//108
f 2//109 53//109 55//109
f 55//110 58//110 1//110
f 18//111 20//111 31//111
f 32//112 18//112 29//112
f 29//113 30//113 39//113
f 43//114 42//114 11//114
f 11//115 7//115 43//115
f 15//116 16//116 24//116
f 48//117 47//117 50//117
f 50//118 59//118 36//118
f 36//119 35//119 48//119
f 48//120 50//120 36//120
f 74//121 58//121 66//121
f 68//122 66//122 58//122
f 25//123 65//123 21//123
f 9//124 23//124 65//124
f 21//125 24//125 25//125
f 8//126 27//126 46//126
f 31//127 46//127 27//127
f 14//128 16//128 12//128
f 71//129 19//129 6//129
f 45//130 44//130 17//130
f 10//131 59//131 8//131
f 55//132 53//132 52//132
f 51//133 26//133 27//133
f 20//134 71//134 46//134
f 67//135 70//135 38//135
f 48//136 34//136 47//136
f 64//137 63//137 47//137
f 49//138 37//138 50//138
f 63//139 73//139 49//139
f 47//140 34//140 64//140
f 49//141 50//141 47//141
f 10//142 7//142 9//142
f 11//143 23//143 9//143
f 68//144 58//144 40//144
