# Blender v2.77 (sub 0) OBJ File: ''
# www.blender.org
o foo
v -0.183871 1.057426 0.467688
v -0.686140 0.909957 0.250627
v -1.051187 0.278973 -0.400898
v -1.141347 -0.326311 -0.162252
v -0.801716 0.059477 -0.867363
v 1.078443 0.456832 -0.087217
v 1.024997 0.007105 -0.573070
v 1.046562 0.334378 0.381100
v -0.194607 1.128175 -0.348265
v 0.503345 1.098810 -0.215949
v 0.148834 0.689489 0.977132
v 0.497493 0.937075 0.552382
v 0.838104 0.031721 0.847033
v -0.260228 -0.054868 -1.135913
v 0.526525 -0.807468 -0.662645
v 0.238455 0.645919 -0.986794
v -0.448965 0.712029 -0.844995
v -0.247520 -0.766687 0.874768
v 0.897109 -0.645554 -0.348224
v 0.586430 -1.004842 0.280646
v -1.020586 0.430221 0.413326
v -0.157430 0.118730 1.159500
v 0.218247 -0.106754 1.157900
v 1.055751 -0.397244 0.364069
v -0.552045 -0.766881 -0.726680
v -0.794665 -0.786001 -0.283802
v 0.503961 -0.594686 0.867486
v -0.468969 -1.028216 0.228306
v 0.039090 -1.095532 0.398682
v -0.171972 -1.106309 -0.356177
v 0.696836 0.427074 -0.876115
v 0.447603 -0.322047 -1.037480
v -0.874379 0.734839 -0.212127
v -0.630856 0.373884 0.910788
v -0.620077 -0.301914 0.937895
v -1.019968 -0.522861 0.402753
v 0.295565 -1.097757 -0.246300
v -0.122783 -0.604254 -0.983165
vn -0.8898 -0.0465 -0.4540
vn 0.9968 -0.0567 -0.0572
vn 0.9974 0.0109 0.0707
vn 0.5523 0.4385 0.7090
vn 0.7031 0.6748 0.2243
vn 0.5330 -0.8207 -0.2056
vn 0.7882 -0.6141 0.0385
vn 0.0786 0.8318 0.5494
vn -0.4735 -0.2849 -0.8334
vn -0.1678 -0.2863 0.9433
vn 0.8372 0.3524 -0.4183
vn 0.9123 0.0019 0.4094
vn -0.4642 -0.8368 -0.2904
vn 0.1791 -0.7558 0.6299
vn -0.2607 -0.8606 0.4375
vn -0.7696 -0.3260 -0.5491
vn -0.7687 -0.4631 -0.4411
vn -0.1495 -0.9872 0.0559
vn 0.6546 -0.5733 0.4927
vn 0.6965 -0.3511 0.6258
vn 0.2830 0.1110 -0.9527
vn 0.1697 0.0881 -0.9815
vn -0.3147 0.9453 0.0861
vn 0.0256 0.9960 0.0860
vn -0.8023 -0.5959 -0.0349
vn 0.7002 -0.3513 -0.6215
vn 0.1367 0.8329 -0.5363
vn -0.9885 0.1508 0.0091
vn -0.9269 0.3738 -0.0346
vn -0.5128 -0.7203 0.4671
vn -0.5969 0.5977 0.5353
vn -0.4508 0.6741 0.5851
vn -0.3231 0.6544 0.6836
vn -0.7175 0.4852 -0.4998
vn -0.7876 -0.0073 0.6162
vn 0.9630 -0.2344 -0.1328
vn -0.5193 0.7671 -0.3767
vn -0.3863 -0.3355 -0.8592
vn 0.3930 0.2360 0.8887
vn 0.0160 -0.9998 0.0098
vn -0.4651 -0.8772 -0.1191
vn 0.7269 0.5763 -0.3734
vn 0.6731 0.4454 0.5904
vn 0.1786 -0.9811 0.0744
vn -0.9779 -0.0030 0.2091
vn -0.8032 0.0111 0.5956
vn 0.2532 -0.7759 0.5779
vn -0.4528 0.0285 0.8912
vn -0.2409 0.4103 0.8795
vn 0.1455 0.9679 0.2049
vn 0.6071 -0.7692 -0.1995
vn 0.4766 -0.2265 0.8494
vn -0.7997 0.5918 0.1013
vn 0.6429 -0.0492 -0.7644
vn -0.5573 -0.5332 0.6366
vn -0.1932 -0.2825 0.9396
vn 0.0619 -0.7815 -0.6209
vn 0.1364 -0.8465 -0.5146
vn -0.7132 0.4051 -0.5721
vn -0.3898 0.2412 -0.8887
vn -0.0810 -0.7749 -0.6269
vn 0.1134 -0.4583 0.8815
vn -0.1626 0.3147 -0.9351
vn 0.0364 -0.2592 -0.9651
vn 0.6898 -0.3689 -0.6230
vn 0.7515 0.6444 0.1414
vn -0.0540 0.7789 -0.6249
vn -0.5144 0.8501 -0.1124
vn 0.2097 -0.5760 -0.7901
vn -0.6625 -0.7460 0.0685
vn 0.4630 0.6855 -0.5619
vn 0.1427 0.2309 0.9624
s off
f 3//1 5//1 4//1
f 6//2 24//2 7//2
f 6//3 8//3 24//3
f 11//4 13//4 12//4
f 6//5 10//5 8//5
f 19//6 20//6 15//6
f 19//7 24//7 20//7
f 11//8 12//8 1//8
f 14//9 25//9 5//9
f 23//10 22//10 18//10
f 31//11 6//11 7//11
f 13//12 24//12 8//12
f 25//13 30//13 26//13
f 18//14 29//14 27//14
f 18//15 28//15 29//15
f 25//16 4//16 5//16
f 25//17 26//17 4//17
f 30//18 29//18 28//18
f 24//19 27//19 20//19
f 24//20 13//20 27//20
f 16//21 31//21 32//21
f 16//22 32//22 14//22
f 1//23 9//23 2//23
f 1//24 10//24 9//24
f 4//25 26//25 36//25
f 7//26 19//26 32//26
f 9//27 10//27 16//27
f 3//28 4//28 21//28
f 3//29 21//29 33//29
f 18//30 36//30 28//30
f 21//31 34//31 2//31
f 1//32 2//32 34//32
f 1//33 34//33 11//33
f 3//34 33//34 17//34
f 36//35 34//35 21//35
f 19//36 7//36 24//36
f 33//37 9//37 17//37
f 38//38 25//38 14//38
f 13//39 11//39 23//39
f 30//40 37//40 29//40
f 30//41 28//41 26//41
f 10//42 6//42 31//42
f 13//43 8//43 12//43
f 37//44 20//44 29//44
f 21//45 4//45 36//45
f 34//46 36//46 35//46
f 27//47 29//47 20//47
f 35//48 22//48 34//48
f 22//49 11//49 34//49
f 12//50 10//50 1//50
f 37//51 15//51 20//51
f 23//52 27//52 13//52
f 2//53 33//53 21//53
f 31//54 7//54 32//54
f 36//55 18//55 35//55
f 22//56 35//56 18//56
f 15//57 30//57 38//57
f 15//58 37//58 30//58
f 3//59 17//59 5//59
f 5//60 17//60 14//60
f 30//61 25//61 38//61
f 18//62 27//62 23//62
f 14//63 17//63 16//63
f 38//64 14//64 32//64
f 15//65 32//65 19//65
f 12//66 8//66 10//66
f 17//67 9//67 16//67
f 33//68 2//68 9//68
f 38//69 32//69 15//69
f 36//70 26//70 28//70
f 31//71 16//71 10//71
f 22//72 23//72 11//72
