# Blender v2.77 (sub 0) OBJ File: ''
# www.blender.org
mtllib LL_com_reduced.mtl
o foo
v 0.403698 0.299288 0.634167
v 0.617171 0.151093 0.533744
v 0.473384 0.088975 0.684193
v -0.404448 -0.353757 0.663486
v -0.172622 -0.195072 0.813954
v -0.512342 0.133831 -0.197226
v -0.347236 0.161966 -0.278468
v -0.491434 0.063317 -0.281525
v -0.591833 0.148660 -0.099684
v 0.226342 -0.270060 0.765800
v -0.061185 -0.230693 -0.262155
v -0.274220 -0.240949 -0.240113
v 0.646610 -0.194424 -0.032640
v 0.604488 -0.409682 0.227971
v -0.131198 -0.148983 -0.335711
v -0.243948 -0.189090 -0.305262
v -0.190577 0.235469 -0.205135
v -0.563620 0.264832 0.337794
v 0.001613 0.341497 0.723743
v 0.473364 0.287113 0.500395
v -0.088777 0.179866 -0.276216
v -0.126708 -0.523562 0.632121
v 0.797596 -0.055603 0.210430
v 0.745593 -0.215503 0.379235
v 0.787827 -0.132149 0.079186
v 0.730740 0.077688 0.114457
v 0.727087 0.148596 0.278204
v -0.645450 0.015372 -0.144885
v -0.623651 -0.081195 -0.168265
v -0.711299 -0.182585 -0.016643
v -0.724168 0.004455 0.023999
v -0.725824 0.096157 0.110222
v -0.547135 -0.438683 0.464380
v -0.500812 -0.518520 0.408611
v -0.260205 -0.570822 0.498900
v -0.459356 -0.418589 0.577874
v 0.086569 -0.437444 0.723509
v 0.117975 -0.511161 0.658651
v 0.230801 -0.382807 0.718794
v -0.472381 -0.080865 -0.276513
v -0.392023 0.015436 -0.342242
v -0.488206 -0.204965 -0.188583
v 0.518767 -0.241096 0.628962
v 0.570127 -0.166103 0.616696
v 0.703947 0.145580 0.421837
v -0.533943 0.271398 0.496434
v -0.364100 0.198919 0.721450
v -0.638439 0.169666 0.540254
v 0.038529 0.102234 0.837400
v 0.235119 0.015254 0.807377
v -0.037523 0.236620 0.802585
v 0.285443 0.164970 0.771181
v 0.066455 0.284736 0.762219
v -0.478531 -0.081848 0.693332
v -0.425496 0.093042 0.716360
v -0.571941 -0.154819 0.601821
v 0.631626 -0.409471 0.294536
v 0.567858 -0.455027 0.430645
v -0.171566 -0.006590 -0.360159
v -0.011723 0.058057 -0.328223
v 0.695880 -0.122058 -0.012561
v -0.655774 -0.285735 0.051095
v -0.628503 -0.381350 0.248809
v -0.736813 -0.235445 0.170289
v -0.440923 -0.264520 -0.165003
v -0.194753 0.111069 0.818672
v 0.242952 -0.559434 0.559698
v -0.004716 -0.595756 0.501753
v 0.443507 -0.455693 0.558837
v -0.420821 -0.178757 -0.244397
v -0.751336 0.067130 0.227010
v -0.748876 -0.182196 0.248289
v -0.415356 -0.530627 0.380836
v 0.601512 0.235757 0.466230
v -0.678360 0.190200 0.379961
v -0.684867 -0.070616 0.489847
v -0.715131 -0.236157 0.335110
v -0.144635 0.284450 0.750632
v -0.132428 -0.064917 0.828096
v 0.355210 0.088114 0.754907
vn -0.4243 0.6400 -0.6406
vn -0.9679 0.0119 0.2510
vn 0.5125 -0.0727 0.8556
vn 0.2328 -0.7680 -0.5967
vn 0.9342 0.0664 0.3506
vn 0.2915 -0.4898 -0.8216
vn -0.0465 0.7534 -0.6559
vn -0.5587 -0.5031 -0.6594
vn -0.3483 -0.8489 -0.3975
vn 0.9260 0.2921 -0.2393
vn -0.9906 -0.0291 -0.1333
vn -0.0995 0.6214 0.7772
vn -0.8184 0.3857 -0.4259
vn -0.3976 -0.0919 0.9129
vn -0.8063 -0.5716 0.1523
vn 0.1544 0.9079 -0.3897
vn -0.0279 -0.7757 -0.6304
vn -0.0927 -0.9734 -0.2096
vn -0.5276 0.8471 0.0636
vn -0.4255 -0.2125 0.8797
vn 0.3241 -0.6207 0.7139
vn 0.6362 0.5495 0.5415
vn 0.4215 -0.8115 0.4047
vn 0.7190 -0.6311 -0.2911
vn 0.7029 -0.3834 0.5991
vn -0.2445 -0.6272 -0.7395
vn -0.7083 -0.0112 0.7059
vn 0.6674 -0.2608 -0.6975
vn -0.0790 0.0254 0.9965
vn -0.2784 0.4195 0.8640
vn 0.3493 -0.1683 -0.9218
vn 0.9678 -0.2419 0.0690
vn -0.3288 -0.7367 0.5909
vn 0.6903 0.2986 -0.6590
vn -0.0075 -0.8777 0.4791
vn 0.4113 0.5654 -0.7149
vn -0.3201 -0.3880 -0.8643
vn -0.9372 0.2292 0.2628
vn -0.4103 0.1951 0.8909
vn 0.2394 -0.9558 -0.1706
vn -0.2952 0.9123 -0.2839
vn 0.3975 0.9092 0.1243
vn -0.7245 -0.6544 -0.2165
vn -0.2938 0.4555 -0.8403
vn 0.8653 -0.5009 -0.0173
vn 0.7905 0.0425 0.6109
vn -0.0988 -0.1955 -0.9757
vn -0.0667 0.9928 -0.0995
vn -0.3687 0.7669 0.5253
vn 0.6856 0.7170 0.1255
vn -0.6593 0.4882 -0.5719
vn -0.8773 0.0435 -0.4780
vn -0.8336 0.5505 -0.0453
vn 0.0935 -0.1360 0.9863
vn 0.3404 0.1113 0.9337
vn 0.5370 0.3224 0.7795
vn 0.2235 0.7088 0.6691
vn -0.7072 -0.3572 0.6102
vn -0.1655 -0.4952 0.8529
vn -0.5245 -0.6707 0.5244
vn 0.0198 0.4031 -0.9149
vn 0.1950 0.3479 0.9170
vn -0.5786 -0.1046 -0.8089
vn -0.5826 0.7941 -0.1733
vn -0.9459 0.1194 0.3018
vn -0.9475 -0.1082 0.3010
vn 0.4543 -0.1124 0.8837
vn 0.4311 -0.1431 0.8909
vn 0.3713 -0.1034 0.9227
vn -0.5193 -0.4490 -0.7271
vn -0.5149 -0.6363 -0.5744
vn -0.4408 -0.4808 -0.7580
vn -0.5051 -0.6470 -0.5712
vn -0.2762 -0.8272 -0.4893
vn -0.2978 -0.8749 -0.3820
vn 0.9214 0.3636 -0.1369
vn 0.9483 0.2748 0.1586
vn -0.9733 0.1478 -0.1759
vn -0.9887 -0.0365 -0.1453
vn -0.9918 -0.0206 -0.1264
vn 0.0393 0.5910 0.8057
vn -0.8203 0.4498 -0.3533
vn -0.3623 -0.0129 0.9320
vn -0.3633 0.0110 0.9316
vn -0.9165 -0.3818 0.1189
vn -0.8249 -0.5552 0.1061
vn -0.8053 -0.5731 0.1515
vn 0.3117 0.9243 -0.2203
vn 0.2649 0.9105 -0.3175
vn 0.2711 0.9073 -0.3215
vn 0.0290 -0.6549 -0.7551
vn 0.0787 -0.8972 -0.4346
vn -0.1731 -0.9792 -0.1058
vn -0.0688 -0.8980 -0.4346
vn -0.0001 -0.9062 -0.4228
vn -0.0165 -0.9026 -0.4301
vn -0.6197 0.7441 0.2497
vn -0.5756 -0.2425 0.7809
vn 0.4511 -0.4162 0.7895
vn 0.2449 -0.5795 0.7773
vn 0.4265 -0.3336 0.8407
vn 0.3254 -0.6204 0.7136
vn 0.6834 0.5282 0.5039
vn 0.6279 -0.6468 -0.4328
vn 0.6484 -0.4322 0.6267
vn 0.7006 -0.3919 0.5962
vn -0.3725 -0.5819 -0.7229
vn -0.2719 -0.6874 -0.6735
vn -0.6971 -0.0068 0.7170
vn -0.6169 0.0840 0.7825
vn -0.0702 0.2128 0.9746
vn -0.2408 0.4141 0.8778
vn 0.4030 -0.0205 -0.9150
vn 0.2336 -0.0998 -0.9672
vn -0.3668 -0.7590 0.5379
vn -0.0930 -0.9054 0.4143
vn 0.0223 -0.8872 0.4609
vn 0.4567 0.4192 -0.7846
vn -0.2298 -0.4105 -0.8824
vn -0.1548 -0.2832 -0.9465
vn -0.5496 0.2809 0.7868
vn 0.1922 -0.9559 -0.2221
vn 0.3561 -0.9235 -0.1423
vn -0.2882 0.8836 -0.3692
vn -0.2635 0.9364 -0.2317
vn -0.7624 -0.5879 -0.2703
vn 0.8074 -0.5580 0.1915
vn 0.8063 0.0233 0.5910
vn 0.7039 0.0802 0.7058
vn -0.1222 0.9923 -0.0182
vn 0.0953 0.9946 -0.0409
vn 0.0553 0.9907 -0.1245
vn -0.2757 0.8843 0.3768
vn -0.4448 0.6984 0.5607
vn -0.6502 0.4652 -0.6006
vn -0.8993 -0.1000 -0.4257
vn 0.0875 -0.1463 0.9854
vn 0.0869 -0.1438 0.9858
vn 0.0604 -0.2916 0.9546
vn 0.1712 -0.3734 0.9117
vn 0.2177 0.1596 0.9629
vn 0.4791 0.3502 0.8049
vn 0.5922 0.3669 0.7174
vn -0.7780 -0.3472 0.5236
vn -0.7898 -0.3218 0.5222
vn -0.6531 -0.3402 0.6765
vn -0.2079 -0.4958 0.8432
vn -0.3172 -0.6470 0.6934
vn -0.0462 -0.6709 0.7401
vn -0.0335 0.4074 -0.9126
vn -0.0210 0.4182 -0.9081
vn 0.1568 0.3556 0.9214
vn 0.2733 0.5584 0.7833
vn -0.6684 0.0291 -0.7432
vn -0.5538 -0.1019 -0.8264
vn -0.5812 0.7948 -0.1748
usemtl None
s off
f 6//1 7//1 8//1
f 72//2 76//2 71//2
f 43//3 3//3 80//3
f 11//4 13//4 14//4
f 45//5 24//5 23//5
f 11//6 15//6 13//6
f 7//7 17//7 21//7
f 42//8 30//8 29//8
f 63//9 65//9 73//9
f 23//10 25//10 26//10
f 64//11 72//11 31//11
f 51//12 19//12 78//12
f 9//13 31//13 32//13
f 79//14 66//14 55//14
f 63//15 33//15 77//15
f 26//16 20//16 27//16
f 16//17 11//17 12//17
f 73//18 68//18 35//18
f 75//19 46//19 18//19
f 54//20 4//20 5//20
f 39//21 67//21 69//21
f 2//22 74//22 1//22
f 67//23 58//23 69//23
f 14//24 25//24 57//24
f 24//25 44//25 43//25
f 12//26 65//26 70//26
f 48//27 76//27 56//27
f 13//28 61//28 25//28
f 49//29 66//29 79//29
f 66//30 78//30 47//30
f 15//31 60//31 13//31
f 25//32 23//32 24//32
f 36//33 35//33 22//33
f 61//34 26//34 25//34
f 38//35 22//35 68//35
f 26//36 60//36 21//36
f 16//37 70//37 41//37
f 71//38 48//38 75//38
f 47//39 55//39 66//39
f 14//40 58//40 67//40
f 17//41 7//41 6//41
f 74//42 20//42 1//42
f 64//43 62//43 63//43
f 7//44 41//44 8//44
f 24//45 57//45 25//45
f 2//46 44//46 45//46
f 41//47 59//47 15//47
f 19//48 17//48 18//48
f 47//49 78//49 46//49
f 27//50 74//50 45//50
f 28//51 6//51 8//51
f 31//52 29//52 30//52
f 71//53 75//53 32//53
f 79//54 5//54 10//54
f 52//55 50//55 80//55
f 1//56 52//56 80//56
f 1//57 19//57 53//57
f 33//58 36//58 56//58
f 22//59 37//59 5//59
f 34//60 36//60 33//60
f 21//61 60//61 59//61
f 53//62 51//62 49//62
f 40//63 29//63 8//63
f 32//64 18//64 9//64
f 48//65 71//65 76//65
f 72//66 77//66 76//66
f 80//67 50//67 43//67
f 10//68 43//68 50//68
f 44//69 3//69 43//69
f 29//70 40//70 42//70
f 42//71 65//71 62//71
f 40//72 70//72 42//72
f 62//73 30//73 42//73
f 73//74 34//74 63//74
f 63//75 62//75 65//75
f 26//76 27//76 23//76
f 45//77 23//77 27//77
f 32//78 31//78 71//78
f 30//79 64//79 31//79
f 72//80 71//80 31//80
f 51//81 53//81 19//81
f 9//82 28//82 31//82
f 55//83 54//83 79//83
f 5//84 79//84 54//84
f 77//85 72//85 64//85
f 64//86 63//86 77//86
f 34//87 33//87 63//87
f 74//88 27//88 20//88
f 26//89 21//89 20//89
f 17//90 20//90 21//90
f 16//91 15//91 11//91
f 14//92 68//92 11//92
f 35//93 34//93 73//93
f 73//94 65//94 12//94
f 12//95 11//95 73//95
f 68//96 73//96 11//96
f 75//97 48//97 46//97
f 54//98 56//98 4//98
f 69//99 43//99 39//99
f 39//100 37//100 38//100
f 43//101 10//101 39//101
f 38//102 67//102 39//102
f 2//103 45//103 74//103
f 14//104 13//104 25//104
f 43//105 69//105 58//105
f 58//106 24//106 43//106
f 42//107 70//107 65//107
f 16//108 12//108 70//108
f 56//109 54//109 48//109
f 55//110 48//110 54//110
f 49//111 51//111 66//111
f 66//112 51//112 78//112
f 61//113 13//113 60//113
f 15//114 59//114 60//114
f 36//115 34//115 35//115
f 35//116 68//116 22//116
f 67//117 38//117 68//117
f 26//118 61//118 60//118
f 40//119 41//119 70//119
f 15//120 16//120 41//120
f 47//121 48//121 55//121
f 67//122 68//122 14//122
f 14//123 57//123 58//123
f 6//124 9//124 17//124
f 18//125 17//125 9//125
f 64//126 30//126 62//126
f 24//127 58//127 57//127
f 24//128 45//128 44//128
f 2//129 3//129 44//129
f 18//130 46//130 19//130
f 19//131 1//131 20//131
f 20//132 17//132 19//132
f 19//133 46//133 78//133
f 48//134 47//134 46//134
f 28//135 9//135 6//135
f 31//136 28//136 29//136
f 10//137 50//137 79//137
f 49//138 79//138 50//138
f 5//139 37//139 10//139
f 39//140 10//140 37//140
f 52//141 49//141 50//141
f 80//142 3//142 1//142
f 2//143 1//143 3//143
f 56//144 76//144 77//144
f 77//145 33//145 56//145
f 36//146 4//146 56//146
f 5//147 4//147 22//147
f 36//148 22//148 4//148
f 38//149 37//149 22//149
f 59//150 41//150 7//150
f 7//151 21//151 59//151
f 49//152 52//152 53//152
f 1//153 53//153 52//153
f 28//154 8//154 29//154
f 41//155 40//155 8//155
f 32//156 75//156 18//156
