# Blender v2.77 (sub 0) OBJ File: ''
# www.blender.org
mtllib LLEG_JOINT0_com_constraints.mtl
o foo
v -0.194010 0.268962 0.656224
v -0.485687 0.209973 0.474845
v -0.463343 0.125662 0.587234
v 0.636364 0.102854 0.386143
v 0.637126 0.133104 0.295915
v 0.594460 0.177332 0.349927
v -0.175636 0.171039 -0.278906
v -0.034053 -0.009002 -0.329214
v -0.303314 0.104520 -0.294766
v 0.051354 -0.345448 0.664395
v -0.190462 -0.317563 0.657475
v -0.044760 -0.480056 0.562936
v -0.075107 -0.076177 -0.316730
v 0.562329 -0.179750 0.015822
v 0.600524 -0.323588 0.138423
v 0.472459 0.196682 0.535463
v 0.296307 0.124410 0.683013
v 0.491306 -0.049445 0.579263
v -0.685386 -0.043757 0.063708
v -0.616755 -0.222250 0.003262
v -0.661935 -0.167131 0.086933
v -0.577234 0.007166 0.481498
v -0.652451 -0.112411 0.312793
v -0.566288 -0.263771 0.413900
v 0.308607 -0.473790 0.456647
v -0.174240 -0.507321 0.449718
v 0.417684 -0.443884 0.319052
v 0.319353 -0.413102 0.543577
v 0.191822 -0.484726 0.531932
v 0.571908 -0.338892 0.291022
v 0.459541 -0.280840 0.541567
v 0.381791 -0.414093 0.486395
v -0.568043 -0.007238 -0.149160
v -0.422608 0.106715 -0.228731
v -0.389279 -0.023405 -0.294026
v -0.215351 0.236271 -0.180260
v -0.494944 -0.249991 0.522575
v -0.372918 -0.424963 0.485552
v 0.629116 -0.232195 0.308695
v 0.655178 -0.198045 0.260811
v -0.002077 0.155008 -0.255240
v 0.513463 0.231511 0.428617
v -0.022644 -0.239339 -0.179632
v -0.443805 -0.071354 -0.249076
v -0.666508 0.068044 0.135585
v -0.666652 -0.147766 0.224038
v -0.653062 0.022227 0.336095
v 0.645829 -0.125068 0.108769
v 0.582585 -0.012100 0.013230
v 0.645256 0.122885 0.176759
v -0.502121 -0.154675 -0.161532
v -0.597962 -0.045364 -0.100102
v 0.076234 0.258274 0.696665
v -0.180018 0.273953 0.643376
v 0.676413 -0.084858 0.293611
v -0.636510 -0.258592 0.214146
v -0.336853 -0.471693 0.364242
v -0.312404 -0.457797 0.474134
v 0.657427 0.061507 0.319208
v -0.286273 -0.216405 -0.197184
v -0.211763 0.197881 0.716037
v -0.379921 -0.129565 -0.256458
v -0.401052 0.254815 0.429808
v -0.574241 0.035475 -0.126935
v 0.233384 -0.181945 0.696829
v 0.270524 0.258944 0.646093
v 0.223555 0.290229 0.620776
v 0.622992 0.070105 0.432324
v -0.533068 0.029616 0.535766
v -0.455421 -0.120807 0.592653
v -0.193943 -0.239711 -0.189459
v -0.171132 -0.133752 -0.305175
v -0.513677 0.146025 -0.064660
v -0.647047 0.113906 0.161275
v -0.625519 0.143279 0.210245
v -0.222562 -0.189774 0.718649
v 0.143406 0.006021 0.750523
v -0.530831 0.183775 0.458086
v -0.497049 0.211478 0.418917
v -0.590232 0.126562 0.454607
v -0.460606 0.148055 -0.146831
v -0.557403 -0.372613 0.305177
vn -0.4930 0.6461 0.5827
vn 0.8127 0.5503 0.1914
vn -0.0146 0.2584 -0.9659
vn -0.0880 -0.5587 0.8247
vn 0.3056 -0.5693 -0.7632
vn 0.5852 0.1853 0.7894
vn -0.9115 -0.2366 -0.3363
vn -0.8555 -0.1576 0.4932
vn 0.0707 -0.9849 -0.1580
vn 0.3911 -0.7766 0.4939
vn 0.6835 -0.5815 0.4413
vn -0.5999 0.2307 -0.7661
vn -0.3185 0.7340 -0.5998
vn 0.5752 -0.7751 0.2614
vn -0.4426 -0.4702 0.7635
vn 0.2290 -0.5396 0.8102
vn 0.8627 -0.4915 0.1190
vn 0.2494 0.9235 -0.2914
vn 0.0128 -0.9211 -0.3891
vn -0.6302 -0.0112 -0.7764
vn -0.9968 0.0310 0.0739
vn 0.8884 0.1233 -0.4423
vn -0.7169 -0.2665 -0.6443
vn -0.0150 0.9374 0.3478
vn 0.4707 0.5834 -0.6619
vn 0.9806 -0.1462 -0.1305
vn -0.9005 -0.3065 0.3086
vn -0.4359 -0.8757 0.2077
vn 0.9577 0.2849 0.0409
vn -0.3127 -0.7825 -0.5384
vn 0.0100 -0.9747 0.2233
vn -0.0866 0.6540 0.7515
vn -0.6559 -0.5637 0.5021
vn -0.4049 -0.3366 -0.8502
vn -0.3424 0.9039 0.2566
vn -0.8839 0.1084 -0.4548
vn -0.8694 -0.4669 -0.1619
vn 0.4840 -0.0720 -0.8721
vn 0.4483 0.8819 -0.1458
vn 0.4349 -0.0488 0.8992
vn 0.4348 -0.0488 0.8992
vn 0.9836 0.0499 -0.1736
vn -0.2854 -0.6602 0.6948
vn 0.4662 0.2866 -0.8370
vn 0.1623 0.7564 0.6336
vn 0.7350 0.5090 0.4480
vn 0.7126 0.7015 -0.0115
vn -0.5927 -0.0013 0.8054
vn -0.1244 -0.7194 -0.6833
vn -0.2200 -0.3426 -0.9134
vn -0.5697 0.7908 -0.2239
vn -0.0917 0.0093 0.9957
vn 0.9556 0.0741 0.2853
vn -0.1888 -0.8874 -0.4205
vn -0.9821 -0.1880 -0.0072
vn 0.3208 -0.5467 -0.7734
vn -0.5712 0.8164 0.0848
vn 0.2156 0.2585 0.9416
vn -0.0433 0.9981 -0.0435
vn -0.1613 -0.0842 -0.9833
vn 0.9138 -0.2615 0.3108
vn 0.4427 0.7885 0.4269
vn -0.9081 0.3829 0.1695
vn -0.6906 0.7079 0.1481
vn -0.6746 0.6066 -0.4207
vn -0.7852 0.0535 0.6169
vn 0.7895 -0.2630 -0.5545
vn 0.0530 -0.2507 0.9666
vn 0.8114 -0.2008 0.5489
vn -0.3379 0.9324 -0.1282
vn -0.5885 0.5765 0.5669
vn -0.4896 0.6298 0.6031
vn -0.5609 0.6049 0.5653
vn 0.1593 0.3799 -0.9112
vn 0.0876 -0.6387 0.7644
vn -0.0770 -0.4462 0.8916
vn 0.3764 -0.3865 -0.8420
vn 0.6548 0.1807 0.7339
vn 0.5290 0.3174 0.7870
vn -0.8689 -0.1776 -0.4620
vn -0.8134 -0.1715 0.5558
vn -0.8863 0.0078 0.4630
vn -0.7413 -0.1321 0.6580
vn -0.8871 -0.0826 0.4541
vn 0.0698 -0.9969 -0.0366
vn 0.4284 -0.7649 0.4810
vn 0.5488 -0.5724 0.6092
vn 0.7543 -0.4788 0.4492
vn -0.4573 0.3025 -0.8363
vn -0.6233 0.2879 -0.7270
vn -0.3484 0.7618 -0.5462
vn -0.3062 0.7327 -0.6078
vn 0.5655 -0.8244 0.0234
vn 0.5452 -0.7973 0.2589
vn -0.5236 -0.4713 0.7097
vn -0.4422 -0.3194 0.8381
vn 0.3918 -0.4027 0.8272
vn 0.2647 -0.4625 0.8462
vn 0.8676 -0.4841 0.1141
vn 0.2329 0.9314 -0.2798
vn 0.1473 0.8513 -0.5036
vn 0.0039 -0.9204 -0.3910
vn 0.0239 -0.9242 -0.3811
vn 0.1185 -0.8776 -0.4646
vn -0.9847 -0.0341 0.1711
vn -0.9854 0.0652 0.1574
vn -0.6815 -0.2469 -0.6889
vn -0.7271 -0.2871 -0.6236
vn -0.0175 0.9332 0.3589
vn 0.9537 -0.2439 -0.1757
vn -0.8791 -0.3709 0.2994
vn -0.9263 -0.2749 0.2577
vn -0.4460 -0.8717 0.2032
vn -0.3024 -0.9350 0.1855
vn 0.9463 0.3041 0.1099
vn -0.3103 -0.7410 -0.5955
vn -0.2252 -0.8568 0.4638
vn -0.6549 -0.5602 0.5073
vn -0.4911 -0.4439 -0.7496
vn -0.2175 0.9662 0.1385
vn -0.4193 0.9012 0.1094
vn -0.8772 0.1017 -0.4692
vn -0.7342 -0.6543 -0.1815
vn 0.4913 -0.2053 0.8464
vn 0.4348 -0.0487 0.8992
vn 0.9907 0.1333 -0.0272
vn -0.2427 -0.6859 0.6860
vn 0.5541 0.5949 0.5823
vn 0.7487 0.5176 0.4143
vn -0.4568 0.0049 0.8895
vn -0.7394 -0.1320 0.6603
vn -0.4714 0.0191 0.8817
vn -0.1796 -0.6794 -0.7115
vn 0.0401 -0.7408 -0.6705
vn 0.9569 0.0181 0.2899
vn -0.2926 -0.8777 -0.3796
vn -0.2391 -0.8756 -0.4197
vn -0.9649 -0.2628 0.0039
vn 0.2506 -0.5743 -0.7794
vn -0.5335 0.8356 0.1309
vn 0.0208 0.2141 0.9766
vn 0.2394 0.2993 0.9236
vn 0.1141 0.9851 -0.1289
vn -0.0428 0.9981 -0.0452
vn -0.1093 -0.0172 -0.9939
vn -0.0403 0.0213 -0.9990
vn 0.4210 0.8616 0.2836
vn -0.9371 0.3213 0.1363
vn -0.9148 0.3719 0.1575
vn -0.8613 0.3695 -0.3486
vn -0.7603 0.5317 -0.3732
vn -0.6295 0.5360 -0.5626
vn -0.7359 0.5901 -0.3319
vn -0.7137 0.1517 0.6838
vn 0.7692 -0.1027 -0.6306
vn 0.0495 -0.2499 0.9670
vn 0.8099 -0.2037 0.5501
vn 0.8075 -0.2137 0.5498
vn -0.3560 0.9112 -0.2074
vn -0.4065 0.9124 -0.0480
vn -0.3328 0.9340 -0.1297
usemtl None
s 1
f 1//1 2//1 3//1
f 4//2 5//2 6//2
f 7//3 8//3 9//3
f 10//4 11//4 12//4
f 13//5 14//5 15//5
f 16//6 17//6 18//6
f 19//7 20//7 21//7
f 22//8 23//8 24//8
f 25//9 26//9 27//9
f 25//10 28//10 29//10
f 30//11 31//11 32//11
f 33//12 34//12 35//12
f 9//13 34//13 36//13
f 32//14 27//14 30//14
f 37//15 38//15 11//15
f 10//16 29//16 28//16
f 39//17 15//17 40//17
f 41//18 36//18 42//18
f 43//19 27//19 26//19
f 33//20 35//20 44//20
f 45//21 46//21 47//21
f 48//22 49//22 50//22
f 51//23 52//23 33//23
f 53//24 54//24 1//24
f 49//25 41//25 50//25
f 40//26 48//26 55//26
f 23//27 56//27 24//27
f 57//28 58//28 38//28
f 5//29 59//29 50//29
f 51//30 60//30 20//30
f 12//31 26//31 29//31
f 1//32 61//32 53//32
f 24//33 38//33 37//33
f 62//34 44//34 35//34
f 2//35 1//35 63//35
f 52//36 64//36 33//36
f 20//37 56//37 21//37
f 8//38 49//38 14//38
f 42//39 6//39 50//39
f 17//40 65//41 18//40
f 50//42 55//42 48//42
f 11//43 58//43 12//43
f 49//44 8//44 41//44
f 53//45 66//45 67//45
f 42//46 16//46 68//46
f 50//47 6//47 5//47
f 69//48 70//48 3//48
f 71//49 60//49 72//49
f 72//50 62//50 35//50
f 73//51 74//51 75//51
f 76//52 77//52 61//52
f 59//53 68//53 55//53
f 60//54 71//54 57//54
f 21//55 46//55 19//55
f 43//56 13//56 15//56
f 78//57 79//57 75//57
f 17//58 53//58 77//58
f 63//59 67//59 36//59
f 9//60 8//60 13//60
f 40//61 55//61 39//61
f 67//62 16//62 42//62
f 75//63 74//63 47//63
f 78//64 75//64 80//64
f 73//65 81//65 64//65
f 69//66 80//66 22//66
f 14//67 48//67 15//67
f 77//68 10//68 65//68
f 18//69 31//69 39//69
f 75//70 63//70 73//70
f 80//71 3//71 78//71
f 61//72 1//72 3//72
f 2//73 78//73 3//73
f 7//74 41//74 8//74
f 12//75 29//75 10//75
f 10//76 76//76 11//76
f 13//77 8//77 14//77
f 18//78 68//78 16//78
f 16//79 66//79 17//79
f 19//80 52//80 20//80
f 24//81 37//81 22//81
f 22//82 80//82 47//82
f 37//83 69//83 22//83
f 47//84 23//84 22//84
f 25//85 29//85 26//85
f 25//86 32//86 28//86
f 28//87 32//87 31//87
f 30//88 39//88 31//88
f 9//89 35//89 34//89
f 33//90 64//90 34//90
f 81//91 36//91 34//91
f 7//92 9//92 36//92
f 15//93 30//93 27//93
f 32//94 25//94 27//94
f 11//95 76//95 70//95
f 70//96 37//96 11//96
f 28//97 31//97 65//97
f 65//98 10//98 28//98
f 39//99 30//99 15//99
f 42//100 50//100 41//100
f 41//101 7//101 36//101
f 26//102 57//102 43//102
f 71//103 43//103 57//103
f 15//104 27//104 43//104
f 23//105 47//105 46//105
f 45//106 19//106 46//106
f 33//107 44//107 51//107
f 51//108 20//108 52//108
f 53//109 67//109 54//109
f 40//110 15//110 48//110
f 82//111 24//111 56//111
f 23//112 46//112 56//112
f 38//113 82//113 57//113
f 57//114 26//114 58//114
f 5//115 4//115 59//115
f 51//116 62//116 60//116
f 12//117 58//117 26//117
f 24//118 82//118 38//118
f 62//119 51//119 44//119
f 54//120 63//120 1//120
f 79//121 2//121 63//121
f 52//122 19//122 64//122
f 20//123 82//123 56//123
f 31//124 18//124 65//124
f 17//40 77//125 65//41
f 50//126 59//126 55//126
f 11//127 38//127 58//127
f 68//128 4//128 6//128
f 6//129 42//129 68//129
f 61//130 3//130 70//130
f 69//131 37//131 70//131
f 70//132 76//132 61//132
f 62//133 72//133 60//133
f 43//134 71//134 72//134
f 59//135 4//135 68//135
f 57//136 82//136 20//136
f 20//137 60//137 57//137
f 21//138 56//138 46//138
f 43//139 72//139 13//139
f 78//140 2//140 79//140
f 61//141 77//141 53//141
f 17//142 66//142 53//142
f 42//143 36//143 67//143
f 63//144 54//144 67//144
f 13//145 72//145 9//145
f 35//146 9//146 72//146
f 67//147 66//147 16//147
f 45//148 47//148 74//148
f 80//149 75//149 47//149
f 19//150 45//150 64//150
f 74//151 73//151 45//151
f 81//152 34//152 64//152
f 64//153 45//153 73//153
f 69//154 3//154 80//154
f 14//155 49//155 48//155
f 77//156 76//156 10//156
f 39//157 55//157 18//157
f 68//158 18//158 55//158
f 81//159 73//159 36//159
f 75//160 79//160 63//160
f 63//161 36//161 73//161
