# Blender v2.77 (sub 0) OBJ File: ''
# www.blender.org
o foo
v 0.492844 0.479809 -0.942303
v -0.818510 0.260093 -0.809078
v -0.963803 0.641922 -0.078436
v -0.219162 -1.104030 0.316197
v -0.496214 -0.765521 -0.731480
v -0.115055 -1.105241 -0.298933
v -0.534975 -1.048068 -0.072410
v -0.986283 -0.458201 -0.508899
v -0.829015 0.607757 0.586596
v -0.220619 0.210816 1.129919
v 0.753538 0.877027 -0.027401
v 1.154637 0.195107 -0.170149
v -0.167882 0.979074 0.615992
v 0.567482 0.853369 0.618937
v -0.045743 1.151829 0.053002
v 0.162595 0.530396 1.044025
v 0.082836 -0.326485 1.140114
v 0.794116 0.112416 0.840288
v 0.375480 1.109354 -0.174684
v 0.820148 0.582158 -0.567569
v -0.030508 -0.695587 -0.963548
v -0.012107 0.016952 -1.175470
v 1.084405 -0.367658 0.258574
v -0.892200 -0.022742 0.784429
v 0.290632 -0.610950 -0.965288
v 0.671700 -0.286389 -0.936275
v -1.197586 -0.091880 -0.051808
v -0.891268 -0.680843 0.265918
v 0.106930 0.930535 -0.715046
v 0.758890 -0.899144 0.068988
v 0.492203 -0.930847 -0.506451
v 0.955591 -0.235241 -0.662439
v 0.306989 -1.136532 0.042871
v 0.244355 -0.895124 0.719386
v -0.554655 0.782992 -0.702466
v 1.071480 0.256611 0.351688
v -0.112553 0.448708 -1.054168
v -0.487258 1.073766 -0.053162
v -0.627739 -0.091178 -0.970005
v 0.676389 -0.531934 0.807112
v -0.377423 -0.814194 0.764349
v -0.596721 -0.477689 0.911532
vn 0.6720 0.1512 -0.7249
vn -0.7808 0.4764 -0.4042
vn -0.6059 -0.7176 -0.3433
vn -0.5172 0.3030 0.8005
vn 0.8296 0.5267 -0.1852
vn 0.1583 0.9338 0.3209
vn 0.3492 0.0723 0.9342
vn 0.1395 0.0975 0.9854
vn -0.1399 -0.8349 -0.5324
vn -0.9265 0.1940 0.3223
vn 0.2430 -0.2005 -0.9491
vn -0.7562 -0.6477 -0.0934
vn -0.8806 -0.4731 -0.0279
vn -0.0665 -0.9977 -0.0093
vn -0.1470 -0.9889 -0.0229
vn 0.2735 -0.5207 0.8087
vn -0.2081 0.9006 -0.3817
vn -0.0786 0.9574 -0.2778
vn -0.3913 0.3693 -0.8429
vn -0.6665 0.7254 0.1723
vn 0.1973 -0.7614 -0.6175
vn 0.2291 0.9412 0.2482
vn 0.4660 -0.8686 -0.1681
vn -0.0727 -0.8490 0.5234
vn -0.4461 -0.0399 0.8941
vn 0.8660 -0.4634 -0.1878
vn 0.0702 -0.2860 -0.9556
vn 0.3593 0.0766 -0.9301
vn -0.6247 -0.6166 0.4790
vn -0.3683 -0.3731 -0.8516
vn -0.5667 -0.3708 -0.7358
vn 0.6311 -0.5443 -0.5526
vn -0.3252 0.5163 0.7923
vn -0.3064 0.5719 0.7609
vn -0.0200 -0.5983 0.8010
vn 0.8364 0.1979 -0.5112
vn -0.2621 -0.2689 -0.9268
vn 0.4221 -0.8408 0.3391
vn 0.1692 -0.9404 -0.2950
vn -0.7908 -0.3795 0.4802
vn 0.5313 -0.5675 -0.6290
vn 0.4512 -0.1279 0.8832
vn 0.7920 0.5577 0.2484
vn 0.8664 0.4929 0.0800
vn 0.5306 -0.7337 0.4243
vn 0.7283 -0.5776 0.3687
vn -0.1517 0.6142 -0.7745
vn 0.1275 0.5314 -0.8375
vn -0.0857 0.9388 -0.3337
vn -0.3269 -0.8615 -0.3886
vn -0.5160 -0.7948 0.3193
vn 0.7469 0.3895 0.5389
vn 0.9539 -0.2478 -0.1691
vn 0.7113 0.1962 -0.6749
vn 0.8143 -0.1772 0.5527
vn 0.8751 -0.0536 0.4809
vn -0.1782 -0.4895 0.8536
vn -0.6414 0.7228 -0.2571
vn -0.9046 0.2764 -0.3244
vn 0.4683 0.8677 0.1666
vn 0.4513 0.6786 -0.5795
vn -0.3639 0.1725 -0.9153
vn -0.3442 0.2301 -0.9103
vn 0.9875 -0.0031 0.1577
vn -0.2866 -0.1439 0.9472
vn -0.4719 0.8133 0.3403
vn -0.7444 -0.1019 -0.6599
vn -0.9306 0.3039 0.2042
vn 0.5844 0.7404 -0.3321
vn 0.4634 0.7466 -0.4774
vn -0.5319 -0.7843 0.3194
vn -0.2249 0.9441 0.2409
vn 0.7546 -0.5740 -0.3181
vn 0.1222 0.7307 0.6716
vn -0.8989 0.0272 -0.4373
vn 0.1209 -0.9313 0.3435
vn 0.1583 0.3010 -0.9404
vn -0.8950 -0.2768 0.3497
vn 0.0683 -0.8532 -0.5172
vn 0.5043 0.3851 0.7729
s off
f 1//1 32//1 26//1
f 2//2 3//2 35//2
f 7//3 8//3 5//3
f 9//4 24//4 10//4
f 11//5 12//5 20//5
f 13//6 14//6 15//6
f 16//7 17//7 18//7
f 16//8 10//8 17//8
f 5//9 21//9 6//9
f 24//10 9//10 27//10
f 22//11 26//11 25//11
f 28//12 8//12 7//12
f 28//13 27//13 8//13
f 6//14 33//14 4//14
f 6//15 4//15 7//15
f 34//16 40//16 17//16
f 29//17 35//17 38//17
f 29//18 38//18 19//18
f 2//19 35//19 37//19
f 3//20 9//20 38//20
f 21//21 25//21 31//21
f 14//22 19//22 15//22
f 33//23 31//23 30//23
f 34//24 41//24 4//24
f 42//25 10//25 24//25
f 23//26 30//26 32//26
f 22//27 25//27 21//27
f 22//28 1//28 26//28
f 42//29 28//29 41//29
f 5//30 39//30 21//30
f 5//31 8//31 39//31
f 32//32 31//32 26//32
f 16//33 13//33 9//33
f 16//34 9//34 10//34
f 17//35 41//35 34//35
f 32//36 20//36 12//36
f 39//37 22//37 21//37
f 33//38 30//38 34//38
f 31//39 33//39 6//39
f 24//40 28//40 42//40
f 26//41 31//41 25//41
f 17//42 40//42 18//42
f 36//43 11//43 14//43
f 36//44 12//44 11//44
f 30//45 40//45 34//45
f 30//46 23//46 40//46
f 29//47 37//47 35//47
f 29//48 1//48 37//48
f 15//49 19//49 38//49
f 7//50 5//50 6//50
f 28//51 7//51 41//51
f 36//52 14//52 18//52
f 23//53 32//53 12//53
f 32//54 1//54 20//54
f 18//55 40//55 23//55
f 18//56 23//56 36//56
f 41//57 17//57 42//57
f 35//58 3//58 38//58
f 3//59 2//59 27//59
f 19//60 14//60 11//60
f 1//61 29//61 20//61
f 2//62 37//62 22//62
f 2//63 22//63 39//63
f 12//64 36//64 23//64
f 42//65 17//65 10//65
f 13//66 38//66 9//66
f 2//67 39//67 8//67
f 27//68 9//68 3//68
f 20//69 19//69 11//69
f 20//70 29//70 19//70
f 7//71 4//71 41//71
f 13//72 15//72 38//72
f 30//73 31//73 32//73
f 14//74 13//74 16//74
f 2//75 8//75 27//75
f 34//76 4//76 33//76
f 37//77 1//77 22//77
f 27//78 28//78 24//78
f 6//79 21//79 31//79
f 16//80 18//80 14//80
