# Blender v2.77 (sub 0) OBJ File: ''
# www.blender.org
o foo
v 0.715750 -0.916770 0.048773
v -0.443569 -0.235164 1.034657
v -0.916199 0.231495 0.630332
v -0.483887 0.464843 0.944169
v -1.128239 0.167005 0.120792
v 0.898682 0.581220 -0.428213
v 1.120641 0.122059 -0.247313
v 0.724721 -0.143798 -0.864846
v 1.066857 -0.326477 -0.253713
v -0.032400 -0.604567 0.969943
v 0.132399 -0.956652 0.587107
v 0.580082 -0.593024 0.756992
v -0.748491 0.860939 0.142541
v 0.686837 0.354660 0.857572
v 0.252175 0.746334 0.835918
v -0.269954 0.994096 0.492205
v 0.320594 1.099166 0.192318
v 0.228595 -0.346360 -1.068489
v 0.194771 -0.843063 -0.763550
v 0.161973 0.123519 1.139617
v 0.346104 0.316043 -1.057957
v 0.413262 0.885706 -0.613919
v -0.518895 -0.938475 -0.371187
v -0.424131 -0.707198 -0.783723
v 0.928203 -0.052687 0.652965
v 1.045568 -0.303030 0.286233
v -0.216693 1.106978 -0.217124
v -0.055969 0.903990 -0.688482
v -0.473029 -0.086950 -1.084296
v 0.090145 -1.153430 -0.171642
v 0.750792 -0.574335 -0.611429
v -0.951272 0.210231 -0.571988
v -0.421684 -1.039938 0.236773
v -0.938451 -0.635979 0.040266
v 0.861554 0.729233 0.196136
v -0.894090 -0.439284 0.542922
v -0.469248 -0.771115 0.674507
v -0.765450 0.711072 -0.452565
v -0.385920 0.509719 -0.941433
v -1.054560 -0.346799 -0.310473
vn -0.6096 0.0670 0.7899
vn 0.8062 -0.2631 -0.5300
vn 0.2598 -0.6525 0.7119
vn -0.1884 -0.8459 0.4990
vn -0.0137 -0.9677 0.2517
vn -0.1430 -0.4407 -0.8862
vn -0.0857 -0.5170 -0.8517
vn 0.5565 0.4690 -0.6858
vn -0.1684 -0.8428 -0.5112
vn -0.1481 -0.8649 -0.4797
vn -0.9165 -0.0812 0.3917
vn 0.4848 -0.7867 -0.3823
vn 0.4377 -0.8258 -0.3556
vn -0.9004 0.3832 -0.2061
vn 0.7628 -0.5897 -0.2654
vn -0.1529 0.6768 0.7201
vn 0.1485 0.5970 -0.7884
vn 0.3010 0.3824 0.8736
vn -0.9532 -0.2433 0.1793
vn 0.7384 -0.5486 0.3922
vn 0.8562 -0.0954 -0.5078
vn -0.6560 -0.6814 0.3245
vn -0.6416 -0.6828 0.3496
vn -0.3739 0.7987 -0.4715
vn 0.9918 -0.1196 0.0443
vn -0.9632 -0.2398 0.1211
vn -0.3477 0.9297 0.1218
vn -0.7261 -0.6288 -0.2781
vn 0.4593 -0.7713 0.4406
vn -0.5174 0.8332 -0.1951
vn -0.0374 0.4424 0.8961
vn 0.2735 -0.9347 0.2272
vn 0.4426 -0.4909 -0.7505
vn 0.4862 -0.4212 -0.7656
vn 0.7633 -0.3931 0.5126
vn 0.5674 0.8082 -0.1579
vn -0.0993 0.9838 0.1491
vn 0.6694 0.2587 -0.6964
vn 0.7991 0.1577 -0.5802
vn -0.0409 -0.2164 0.9754
vn -0.6399 0.3946 -0.6594
vn -0.7649 -0.1520 -0.6259
vn -0.6071 -0.7938 -0.0354
vn 0.3987 -0.0562 -0.9154
vn 0.3187 -0.2950 0.9008
vn -0.8719 0.4802 -0.0961
vn 0.5115 -0.1240 0.8503
vn -0.9678 0.0653 -0.2431
vn 0.9663 0.1171 0.2293
vn 0.0923 0.8690 0.4862
vn 0.0073 0.5356 -0.8444
vn 0.0266 0.0112 -0.9996
vn -0.5621 -0.4426 0.6987
vn 0.9063 0.4201 -0.0457
vn 0.9434 0.2236 0.2450
vn -0.6223 0.2670 -0.7358
vn -0.6628 0.5610 0.4960
vn -0.5548 0.6585 0.5085
vn 0.8619 0.3086 0.4024
vn 0.5027 -0.1603 0.8495
vn -0.3889 0.7055 -0.5925
vn 0.8704 -0.4892 0.0556
vn -0.2334 0.1114 0.9660
vn -0.7085 -0.1141 0.6965
vn 0.5587 0.8154 -0.1517
vn -0.6831 -0.3614 -0.6347
vn 0.5593 0.6492 0.5154
vn 0.5000 0.7359 0.4566
vn -0.8425 0.4518 0.2934
vn -0.0891 0.2442 -0.9656
vn -0.2984 -0.9480 -0.1105
vn -0.1414 -0.7582 0.6365
vn -0.3375 -0.5138 0.7887
vn 0.0943 0.9256 -0.3665
vn -0.6771 -0.5646 -0.4720
vn 0.1898 0.9543 -0.2308
s off
f 2//1 4//1 3//1
f 8//2 9//2 31//2
f 10//3 11//3 12//3
f 11//4 37//4 33//4
f 11//5 33//5 30//5
f 24//6 29//6 18//6
f 24//7 18//7 19//7
f 21//8 22//8 6//8
f 19//9 23//9 24//9
f 19//10 30//10 23//10
f 5//11 36//11 3//11
f 1//12 19//12 31//12
f 1//13 30//13 19//13
f 32//14 5//14 38//14
f 31//15 9//15 1//15
f 4//16 15//16 16//16
f 28//17 22//17 21//17
f 15//18 20//18 14//18
f 34//19 36//19 5//19
f 1//20 26//20 12//20
f 8//21 7//21 9//21
f 36//22 34//22 33//22
f 36//23 33//23 37//23
f 38//24 27//24 28//24
f 9//25 7//25 26//25
f 5//26 40//26 34//26
f 13//27 16//27 27//27
f 23//28 34//28 40//28
f 11//29 1//29 12//29
f 27//30 38//30 13//30
f 15//31 4//31 20//31
f 1//32 11//32 30//32
f 18//33 31//33 19//33
f 18//34 8//34 31//34
f 12//35 26//35 25//35
f 22//36 35//36 6//36
f 16//37 17//37 27//37
f 8//38 21//38 6//38
f 8//39 6//39 7//39
f 2//40 10//40 20//40
f 32//41 38//41 39//41
f 29//42 40//42 32//42
f 23//43 33//43 34//43
f 21//44 8//44 18//44
f 10//45 12//45 20//45
f 13//46 38//46 5//46
f 14//47 20//47 25//47
f 32//48 40//48 5//48
f 26//49 7//49 25//49
f 16//50 15//50 17//50
f 21//51 39//51 28//51
f 18//52 29//52 21//52
f 36//53 37//53 2//53
f 7//54 6//54 35//54
f 7//55 35//55 25//55
f 39//56 29//56 32//56
f 13//57 3//57 4//57
f 13//58 4//58 16//58
f 25//59 35//59 14//59
f 25//60 20//60 12//60
f 38//61 28//61 39//61
f 9//62 26//62 1//62
f 2//63 20//63 4//63
f 3//64 36//64 2//64
f 35//65 22//65 17//65
f 29//66 24//66 40//66
f 35//67 15//67 14//67
f 35//68 17//68 15//68
f 3//69 13//69 5//69
f 39//70 21//70 29//70
f 33//71 23//71 30//71
f 37//72 11//72 10//72
f 2//73 37//73 10//73
f 28//74 27//74 22//74
f 23//75 40//75 24//75
f 17//76 22//76 27//76
