# Blender v2.77 (sub 0) OBJ File: ''
# www.blender.org
mtllib RL_com_reduced.mtl
o foo
v 0.334789 -0.239209 0.721128
v 0.023177 -0.194818 0.813772
v 0.135961 -0.260950 0.766527
v -0.319319 0.019979 0.773012
v -0.508476 -0.201817 0.641485
v -0.195499 -0.074095 0.821334
v 0.133011 0.262209 0.782526
v -0.375992 0.029198 -0.334374
v -0.587450 0.098686 -0.229955
v -0.162844 -0.032315 -0.374502
v -0.353896 -0.147055 -0.312809
v -0.234731 0.084060 -0.352947
v 0.681980 -0.013305 0.077366
v 0.747512 0.078810 0.326914
v 0.739730 0.036060 0.423594
v 0.738876 0.237843 0.190388
v 0.710912 -0.088390 0.196957
v 0.675908 -0.216035 0.374933
v 0.676093 -0.102702 0.158630
v 0.700649 0.211154 0.031046
v 0.605263 0.165208 -0.034342
v -0.686508 0.269242 0.056901
v -0.698706 0.338939 0.226268
v -0.718214 0.185097 0.027273
v -0.611437 0.381564 0.193809
v 0.166229 0.610223 0.518915
v 0.392780 0.387478 0.637320
v 0.342198 0.511992 0.540848
v 0.296298 0.582054 0.410999
v -0.123804 0.594455 0.505670
v -0.756186 0.171584 0.248837
v -0.766586 0.151627 0.128819
v -0.302525 0.177798 -0.294478
v -0.343128 0.220183 -0.252018
v -0.101937 0.270889 -0.200785
v -0.564965 -0.096261 -0.200342
v -0.670287 -0.020429 -0.096246
v -0.307182 0.286109 0.724174
v -0.266634 0.468173 0.651306
v -0.714332 -0.109291 0.288589
v -0.704945 -0.119477 0.165374
v -0.577570 -0.238437 0.548096
v 0.356264 -0.249731 0.706034
v 0.134382 -0.306990 0.739455
v -0.454170 0.498189 0.391254
v -0.648097 0.371894 0.313751
v -0.326757 0.537527 0.495969
v 0.495816 0.088928 0.677957
v 0.250481 0.008438 0.809858
v -0.025998 0.119031 -0.309321
v -0.093878 -0.125163 -0.337089
v -0.203252 -0.167911 -0.323603
v 0.398025 -0.255717 0.670747
v -0.376264 -0.198548 -0.239461
v -0.583230 -0.128352 -0.139375
v -0.662767 -0.082549 -0.062986
v -0.743018 -0.043274 0.163503
v 0.575211 -0.099272 0.592906
v -0.034487 0.209947 -0.250545
v 0.112738 0.201456 0.802756
v -0.626807 0.349616 0.417040
v -0.644662 0.279159 0.480898
v 0.607301 0.403846 0.419259
v -0.307055 -0.265505 0.722141
v -0.376288 -0.300167 0.646292
v -0.729252 -0.088062 0.216200
v -0.721649 -0.035296 0.394922
v 0.611719 0.135890 0.562281
v 0.172615 -0.332200 0.647424
v -0.139200 -0.221325 -0.226302
v 0.542999 0.451410 0.356198
v 0.586781 -0.158949 0.561585
v 0.514315 -0.287818 0.503425
v 0.684071 0.320722 0.327314
v -0.125520 0.166230 -0.303437
v -0.074845 -0.295112 0.730153
v -0.609454 0.008810 0.589034
v -0.694365 -0.037816 0.452824
v 0.034596 -0.084750 0.835998
vn 0.5143 -0.1635 0.8419
vn -0.4946 -0.1664 -0.8531
vn 0.4515 -0.0241 -0.8920
vn 0.0247 -0.3578 -0.9335
vn 0.2103 0.5445 -0.8120
vn -0.5574 0.6562 0.5087
vn -0.5139 0.7796 -0.3578
vn -0.8820 -0.3833 0.2741
vn 0.0245 -0.8855 -0.4640
vn -0.8981 0.1029 0.4277
vn -0.7225 0.4554 -0.5203
vn -0.2235 -0.1459 -0.9637
vn -0.4136 -0.1769 0.8931
vn 0.8442 0.2632 0.4670
vn -0.0577 -0.9928 -0.1054
vn -0.3709 -0.9207 -0.1213
vn -0.3041 0.3844 -0.8716
vn -0.7545 -0.1828 -0.6303
vn 0.2668 -0.8951 0.3571
vn -0.8833 -0.4450 -0.1474
vn -0.9906 -0.0984 0.0949
vn -0.8818 0.3897 0.2658
vn 0.0958 0.3194 -0.9428
vn -0.2684 0.9627 -0.0351
vn -0.5592 0.7208 0.4096
vn 0.2647 -0.5728 0.7758
vn -0.4742 -0.6460 -0.5981
vn -0.5710 0.2397 0.7852
vn 0.3845 0.2730 0.8818
vn -0.2417 -0.9640 -0.1106
vn -0.1263 -0.8536 0.5054
vn -0.1184 0.9014 -0.4165
vn -0.8646 0.4219 -0.2728
vn 0.9687 -0.2477 0.0129
vn -0.5181 0.8506 -0.0898
vn -0.9072 0.0402 -0.4189
vn 0.9504 0.2489 0.1866
vn -0.5380 0.4138 0.7344
vn 0.5962 0.7562 -0.2697
vn 0.4825 -0.3062 -0.8206
vn -0.8003 -0.1970 0.5663
vn -0.4884 -0.6268 0.6071
vn 0.6062 0.3090 0.7328
vn -0.7996 -0.6004 -0.0113
vn -0.7715 -0.4379 -0.4616
vn 0.2804 0.7699 -0.5733
vn 0.9688 -0.0201 -0.2470
vn 0.7296 -0.4857 -0.4814
vn -0.0656 -0.9690 0.2382
vn 0.4353 0.8476 0.3034
vn -0.9230 -0.2625 -0.2815
vn 0.1180 0.6377 0.7612
vn -0.3209 0.4990 -0.8050
vn -0.0708 0.7869 0.6130
vn 0.3838 -0.7693 -0.5108
vn 0.0095 0.6991 -0.7150
vn -0.0607 -0.8913 -0.4493
vn -0.0694 -0.5979 0.7986
vn 0.5200 0.6451 0.5599
vn -0.1741 0.2588 0.9501
vn -0.0712 -0.1903 0.9791
vn 0.2203 -0.2455 0.9440
vn 0.6094 -0.5845 0.5357
vn 0.7716 -0.1718 0.6124
vn 0.7100 -0.0186 0.7039
vn 0.5031 -0.1346 0.8537
vn 0.6415 0.2910 0.7098
vn 0.7262 -0.0233 0.6871
vn 0.5852 -0.2850 0.7592
vn 0.5832 -0.1820 0.7917
vn -0.4834 -0.1857 -0.8554
vn 0.3998 -0.0069 -0.9166
vn -0.1117 -0.3199 -0.9408
vn 0.3075 0.5072 -0.8051
vn 0.3035 0.5371 -0.7870
vn -0.5425 0.6355 0.5494
vn -0.3232 0.8108 -0.4880
vn -0.7611 -0.5558 0.3344
vn 0.2917 -0.8930 -0.3426
vn -0.8587 0.0900 0.5045
vn -0.9153 0.1189 0.3848
vn -0.1613 0.0825 -0.9834
vn -0.4701 -0.1744 0.8652
vn -0.5337 -0.0456 0.8444
vn 0.8000 0.3266 0.5033
vn -0.0888 -0.9896 -0.1135
vn 0.0655 -0.9867 -0.1486
vn -0.6455 -0.7262 -0.2367
vn -0.3999 -0.9045 -0.1480
vn -0.2604 0.3684 -0.8925
vn 0.2475 -0.8635 0.4394
vn 0.2836 -0.8883 0.3612
vn -0.8680 -0.4394 -0.2314
vn -0.9566 -0.2659 0.1192
vn -0.9895 -0.1014 0.1026
vn -0.9776 -0.1867 0.0967
vn -0.8768 0.4254 0.2242
vn -0.8627 0.3460 0.3687
vn -0.9443 0.3280 0.0273
vn 0.2002 0.2966 -0.9338
vn -0.6005 0.7472 0.2849
vn 0.2444 -0.4977 0.8322
vn -0.4883 -0.7034 -0.5165
vn -0.5320 0.1762 0.8282
vn 0.2652 0.2238 0.9379
vn 0.3770 0.2515 0.8914
vn -0.1079 0.9123 -0.3951
vn -0.1332 0.8962 -0.4233
vn -0.0384 0.9546 -0.2955
vn -0.0673 0.9063 -0.4172
vn -0.8645 0.4398 -0.2433
vn 0.9787 -0.2050 -0.0119
vn -0.4583 0.8861 -0.0687
vn -0.8776 0.0795 -0.4728
vn 0.9420 0.2467 0.2277
vn 0.6620 0.7404 -0.1166
vn 0.6463 0.7394 -0.1889
vn 0.6192 -0.2078 -0.7573
vn -0.7481 -0.2012 0.6324
vn -0.4542 -0.5774 0.6785
vn 0.6494 0.3664 0.6664
vn -0.6933 -0.7206 0.0068
vn -0.7451 -0.3827 -0.5463
vn 0.2757 0.7724 -0.5723
vn 0.1974 0.8317 -0.5189
vn 0.9694 -0.1243 -0.2117
vn 0.9699 -0.1260 -0.2082
vn 0.6583 -0.6670 -0.3489
vn -0.0568 -0.9634 0.2621
vn 0.4476 0.8714 0.2008
vn 0.4968 0.8250 0.2695
vn -0.9461 -0.1641 -0.2793
vn 0.2229 0.5750 0.7872
vn 0.0472 0.6003 0.7984
vn -0.4074 0.7163 -0.5666
vn -0.2586 0.8409 0.4755
vn 0.4047 -0.6295 -0.6632
vn 0.2330 -0.7796 -0.5813
vn 0.0011 0.7082 -0.7060
vn -0.0088 0.5246 -0.8513
vn 0.0889 0.6872 -0.7210
vn -0.1518 -0.7866 -0.5985
vn -0.1015 -0.5767 0.8106
vn 0.0624 -0.5075 0.8594
vn -0.1003 0.3889 0.9158
vn -0.1446 0.1850 0.9720
vn -0.0570 0.1305 0.9898
vn -0.1049 0.3455 0.9325
vn 0.0798 0.0935 0.9924
vn -0.1736 -0.3715 0.9121
vn 0.2660 -0.2172 0.9392
vn 0.2416 -0.2534 0.9367
vn 0.6479 -0.5847 0.4882
vn 0.8213 -0.3014 0.4844
usemtl None
s off
f 53//1 58//1 48//1
f 36//2 8//2 11//2
f 50//3 51//3 10//3
f 52//4 10//4 51//4
f 50//5 75//5 59//5
f 47//6 62//6 39//6
f 25//7 22//7 23//7
f 78//8 40//8 42//8
f 73//9 19//9 18//9
f 62//10 67//10 78//10
f 9//11 24//11 22//11
f 8//12 10//12 11//12
f 4//13 5//13 64//13
f 68//14 74//14 63//14
f 70//15 69//15 65//15
f 54//16 41//16 55//16
f 33//17 8//17 9//17
f 9//18 36//18 37//18
f 69//19 73//19 53//19
f 57//20 41//20 66//20
f 31//21 57//21 67//21
f 46//22 31//22 61//22
f 10//23 75//23 50//23
f 45//24 47//24 30//24
f 45//25 61//25 47//25
f 1//26 44//26 43//26
f 54//27 36//27 11//27
f 77//28 38//28 62//28
f 48//29 7//29 49//29
f 54//30 65//30 42//30
f 76//31 64//31 65//31
f 45//32 30//32 35//32
f 32//33 22//33 24//33
f 17//34 15//34 18//34
f 25//35 46//35 45//35
f 24//36 37//36 32//36
f 14//37 74//37 15//37
f 38//38 39//38 62//38
f 16//39 20//39 71//39
f 21//40 13//40 51//40
f 42//41 77//41 78//41
f 65//42 5//42 42//42
f 68//43 27//43 48//43
f 41//44 40//44 66//44
f 55//45 37//45 36//45
f 71//46 59//46 29//46
f 14//47 17//47 13//47
f 17//48 19//48 13//48
f 76//49 69//49 44//49
f 29//50 26//50 28//50
f 57//51 37//51 56//51
f 7//52 27//52 28//52
f 9//53 34//53 33//53
f 30//54 39//54 26//54
f 51//55 13//55 70//55
f 75//56 33//56 35//56
f 54//57 52//57 70//57
f 44//58 2//58 76//58
f 27//59 63//59 28//59
f 4//60 6//60 60//60
f 6//61 2//61 79//61
f 49//62 79//62 3//62
f 73//63 72//63 53//63
f 72//64 15//64 58//64
f 68//65 48//65 58//65
f 49//66 1//66 48//66
f 43//67 53//67 1//67
f 58//68 15//68 68//68
f 53//69 72//69 58//69
f 48//70 1//70 53//70
f 36//71 9//71 8//71
f 50//72 21//72 51//72
f 52//73 11//73 10//73
f 59//74 20//74 21//74
f 21//75 50//75 59//75
f 47//76 61//76 62//76
f 25//77 34//77 22//77
f 78//78 67//78 40//78
f 73//79 70//79 19//79
f 78//80 77//80 62//80
f 62//81 31//81 67//81
f 8//82 12//82 10//82
f 64//83 6//83 4//83
f 4//84 77//84 5//84
f 68//85 15//85 74//85
f 65//86 54//86 70//86
f 70//87 73//87 69//87
f 56//88 55//88 41//88
f 54//89 42//89 41//89
f 33//90 12//90 8//90
f 53//91 43//91 69//91
f 44//92 69//92 43//92
f 57//93 56//93 41//93
f 40//94 67//94 66//94
f 31//95 32//95 57//95
f 57//96 66//96 67//96
f 62//97 61//97 31//97
f 46//98 23//98 31//98
f 32//99 31//99 23//99
f 10//100 12//100 75//100
f 45//101 46//101 61//101
f 1//102 3//102 44//102
f 54//103 55//103 36//103
f 77//104 4//104 38//104
f 60//105 49//105 7//105
f 48//106 27//106 7//106
f 35//107 34//107 25//107
f 25//108 45//108 35//108
f 30//109 26//109 29//109
f 29//110 35//110 30//110
f 32//111 23//111 22//111
f 17//112 14//112 15//112
f 25//113 23//113 46//113
f 24//114 9//114 37//114
f 14//115 16//115 74//115
f 71//116 63//116 74//116
f 74//117 16//117 71//117
f 21//118 20//118 13//118
f 42//119 5//119 77//119
f 65//120 64//120 5//120
f 68//121 63//121 27//121
f 41//122 42//122 40//122
f 55//123 56//123 37//123
f 35//124 29//124 59//124
f 71//125 20//125 59//125
f 13//126 20//126 16//126
f 16//127 14//127 13//127
f 17//128 18//128 19//128
f 76//129 65//129 69//129
f 28//130 63//130 71//130
f 71//131 29//131 28//131
f 57//132 32//132 37//132
f 28//133 26//133 7//133
f 39//134 7//134 26//134
f 9//135 22//135 34//135
f 30//136 47//136 39//136
f 19//137 70//137 13//137
f 52//138 51//138 70//138
f 34//139 35//139 33//139
f 75//140 12//140 33//140
f 35//141 59//141 75//141
f 54//142 11//142 52//142
f 64//143 76//143 2//143
f 44//144 3//144 2//144
f 7//145 39//145 38//145
f 38//146 4//146 60//146
f 6//147 79//147 60//147
f 60//148 7//148 38//148
f 79//149 49//149 60//149
f 6//150 64//150 2//150
f 2//151 3//151 79//151
f 1//152 49//152 3//152
f 73//153 18//153 72//153
f 72//154 18//154 15//154
